Lora-Regular.ufo
<glyph name="exclam" format="2">
  <advance width="266"/>
  <unicode hex="0021"/>
  <outline>
    <contour>
      <point x="114" y="230" type="line"/>
      <point x="151" y="230" type="line"/>
      <point x="190" y="643" type="line" smooth="yes"/>
      <point x="193" y="678"/>
      <point x="176" y="716"/>
      <point x="133" y="716" type="curve" smooth="yes"/>
      <point x="92" y="716"/>
      <point x="72" y="678"/>
      <point x="75" y="643" type="curve" smooth="yes"/>
    </contour>
    <contour>
      <point x="132" y="-16" type="curve" smooth="yes"/>
      <point x="163" y="-16"/>
      <point x="191" y="12"/>
      <point x="191" y="48" type="curve" smooth="yes"/>
      <point x="191" y="84"/>
      <point x="166" y="113"/>
      <point x="133" y="113" type="curve" smooth="yes"/>
      <point x="102" y="113"/>
      <point x="74" y="84"/>
      <point x="74" y="48" type="curve" smooth="yes"/>
      <point x="74" y="12"/>
      <point x="101" y="-16"/>
    </contour>
  </outline>
</glyph>
<glyph name="four" format="2">
  <advance width="542"/>
  <unicode hex="0034"/>
  <outline>
    <contour>
      <point x="407" y="109" type="curve" smooth="yes"/>
      <point x="407" y="193" type="line"/>
      <point x="508" y="193" type="line"/>
      <point x="508" y="252" type="line"/>
      <point x="407" y="253" type="line"/>
      <point x="407" y="716" type="line"/>
      <point x="374" y="716" type="line"/>
      <point x="12" y="242" type="line"/>
      <point x="12" y="193" type="line"/>
      <point x="316" y="193" type="line"/>
      <point x="316" y="159" type="line" smooth="yes"/>
      <point x="316" y="86"/>
      <point x="304" y="38"/>
      <point x="236" y="33" type="curve" smooth="yes"/>
      <point x="229" y="33" type="line"/>
      <point x="229" y="0" type="line"/>
      <point x="480" y="0" type="line"/>
      <point x="480" y="41" type="line"/>
      <point x="454" y="40"/>
      <point x="429" y="39"/>
      <point x="403" y="38" type="curve"/>
      <point x="407" y="58"/>
      <point x="407" y="82"/>
    </contour>
    <contour>
      <point x="314" y="574" type="line"/>
      <point x="316" y="574" type="line"/>
      <point x="316" y="255" type="line"/>
      <point x="78" y="258" type="line"/>
    </contour>
  </outline>
</glyph>
<glyph name="A" format="2">
  <advance width="626"/>
  <unicode hex="0041"/>
  <anchor x="313" y="0" name="bottom"/>
  <anchor x="563" y="0" name="ogonek"/>
  <anchor x="309" y="700" name="top"/>
  <outline>
    <contour>
      <point x="-6" y="0" type="line"/>
      <point x="181" y="0" type="line"/>
      <point x="181" y="44" type="line"/>
      <point x="155" y="43"/>
      <point x="129" y="41"/>
      <point x="103" y="40" type="curve"/>
      <point x="112" y="62"/>
      <point x="118" y="77"/>
      <point x="128" y="109" type="curve"/>
      <point x="163" y="216" type="line"/>
      <point x="423" y="222" type="line"/>
      <point x="458" y="128" type="line" smooth="yes"/>
      <point x="472" y="91"/>
      <point x="484" y="35"/>
      <point x="409" y="33" type="curve"/>
      <point x="409" y="0" type="line"/>
      <point x="638" y="0" type="line"/>
      <point x="638" y="44" type="line"/>
      <point x="615" y="43"/>
      <point x="593" y="41"/>
      <point x="570" y="40" type="curve"/>
      <point x="572" y="70"/>
      <point x="555" y="122"/>
      <point x="544" y="150" type="curve" smooth="yes"/>
      <point x="321" y="719" type="line"/>
      <point x="297" y="719" type="line"/>
      <point x="91" y="158" type="line" smooth="yes"/>
      <point x="63" y="84"/>
      <point x="54" y="33"/>
      <point x="-6" y="33" type="curve"/>
    </contour>
    <contour>
      <point x="178" y="259" type="line"/>
      <point x="249" y="460" type="line"/>
      <point x="263" y="498"/>
      <point x="277" y="535"/>
      <point x="291" y="573" type="curve"/>
      <point x="293" y="573" type="line"/>
      <point x="308" y="532"/>
      <point x="323" y="491"/>
      <point x="338" y="450" type="curve"/>
      <point x="409" y="259" type="line"/>
    </contour>
  </outline>
</glyph>
<glyph name="D" format="2">
  <advance width="745"/>
  <unicode hex="0044"/>
  <anchor x="373" y="350" name="center"/>
  <anchor x="346" y="700" name="top"/>
  <outline>
    <contour>
      <point x="55" y="33" type="curve"/>
      <point x="55" y="0" type="line"/>
      <point x="318" y="0" type="line" smooth="yes"/>
      <point x="569" y="0"/>
      <point x="699" y="165"/>
      <point x="699" y="349" type="curve" smooth="yes"/>
      <point x="699" y="590"/>
      <point x="532" y="702"/>
      <point x="291" y="701" type="curve" smooth="yes"/>
      <point x="55" y="700" type="line"/>
      <point x="55" y="656" type="line"/>
      <point x="79" y="657"/>
      <point x="103" y="659"/>
      <point x="127" y="660" type="curve"/>
      <point x="125" y="640"/>
      <point x="124" y="615"/>
      <point x="124" y="588" type="curve" smooth="yes"/>
      <point x="124" y="156" type="line" smooth="yes"/>
      <point x="124" y="85"/>
      <point x="130" y="36"/>
    </contour>
    <contour>
      <point x="211" y="118" type="curve" smooth="yes"/>
      <point x="211" y="544" type="line" smooth="yes"/>
      <point x="211" y="615"/>
      <point x="205" y="664"/>
      <point x="280" y="664" type="curve" smooth="yes"/>
      <point x="500" y="664"/>
      <point x="601" y="542"/>
      <point x="601" y="353" type="curve" smooth="yes"/>
      <point x="601" y="174"/>
      <point x="487" y="38"/>
      <point x="315" y="38" type="curve" smooth="yes"/>
      <point x="307" y="38"/>
      <point x="261" y="37"/>
      <point x="208" y="40" type="curve"/>
      <point x="210" y="57"/>
      <point x="211" y="82"/>
    </contour>
  </outline>
</glyph>
<glyph name="I" format="2">
  <advance width="335"/>
  <unicode hex="0049"/>
  <anchor x="168" y="0" name="bottom"/>
  <anchor x="274" y="0" name="ogonek"/>
  <anchor x="171" y="700" name="top"/>
  <anchor x="20" y="700" name="topleft"/>
  <outline>
    <contour>
      <point x="280" y="667" type="curve"/>
      <point x="280" y="700" type="line"/>
      <point x="55" y="700" type="line"/>
      <point x="55" y="656" type="line"/>
      <point x="79" y="657"/>
      <point x="103" y="659"/>
      <point x="127" y="660" type="curve"/>
      <point x="125" y="640"/>
      <point x="124" y="615"/>
      <point x="124" y="588" type="curve" smooth="yes"/>
      <point x="124" y="156" type="line" smooth="yes"/>
      <point x="124" y="85"/>
      <point x="130" y="36"/>
      <point x="55" y="33" type="curve"/>
      <point x="55" y="0" type="line"/>
      <point x="280" y="0" type="line"/>
      <point x="280" y="44" type="line"/>
      <point x="256" y="43"/>
      <point x="232" y="41"/>
      <point x="208" y="40" type="curve"/>
      <point x="210" y="57"/>
      <point x="211" y="83"/>
      <point x="211" y="119" type="curve" smooth="yes"/>
      <point x="211" y="544" type="line" smooth="yes"/>
      <point x="211" y="615"/>
      <point x="205" y="664"/>
    </contour>
  </outline>
</glyph>
<glyph name="K" format="2">
  <advance width="683"/>
  <unicode hex="004B"/>
  <anchor x="378" y="0" name="bottom"/>
  <anchor x="347" y="700" name="top"/>
  <outline>
    <contour>
      <point x="55" y="0" type="line"/>
      <point x="280" y="0" type="line"/>
      <point x="280" y="44" type="line"/>
      <point x="256" y="43"/>
      <point x="232" y="41"/>
      <point x="208" y="40" type="curve"/>
      <point x="210" y="57"/>
      <point x="211" y="83"/>
      <point x="211" y="119" type="curve" smooth="yes"/>
      <point x="211" y="340" type="line"/>
      <point x="260" y="341" type="line"/>
      <point x="284" y="326"/>
      <point x="310" y="293"/>
      <point x="335" y="260" type="curve" smooth="yes"/>
      <point x="455" y="98" type="line" smooth="yes"/>
      <point x="494" y="47"/>
      <point x="536" y="0"/>
      <point x="556" y="0" type="curve" smooth="yes"/>
      <point x="678" y="0" type="line"/>
      <point x="678" y="33" type="line"/>
      <point x="635" y="33"/>
      <point x="607" y="41"/>
      <point x="531" y="142" type="curve" smooth="yes"/>
      <point x="419" y="291" type="line" smooth="yes"/>
      <point x="395" y="322"/>
      <point x="374" y="353"/>
      <point x="336" y="376" type="curve"/>
      <point x="434" y="532" type="line" smooth="yes"/>
      <point x="502" y="641"/>
      <point x="552" y="660"/>
      <point x="636" y="667" type="curve"/>
      <point x="636" y="700" type="line"/>
      <point x="421" y="700" type="line"/>
      <point x="421" y="659" type="line"/>
      <point x="441" y="660"/>
      <point x="462" y="660"/>
      <point x="482" y="661" type="curve"/>
      <point x="455" y="639"/>
      <point x="428" y="603"/>
      <point x="411" y="577" type="curve" smooth="yes"/>
      <point x="286" y="380" type="line"/>
      <point x="211" y="380" type="line"/>
      <point x="211" y="544" type="line" smooth="yes"/>
      <point x="211" y="615"/>
      <point x="205" y="664"/>
      <point x="280" y="667" type="curve"/>
      <point x="280" y="700" type="line"/>
      <point x="55" y="700" type="line"/>
      <point x="55" y="656" type="line"/>
      <point x="79" y="657"/>
      <point x="103" y="659"/>
      <point x="127" y="660" type="curve"/>
      <point x="125" y="640"/>
      <point x="124" y="615"/>
      <point x="124" y="588" type="curve" smooth="yes"/>
      <point x="124" y="156" type="line" smooth="yes"/>
      <point x="124" y="85"/>
      <point x="130" y="36"/>
      <point x="55" y="33" type="curve"/>
    </contour>
  </outline>
</glyph>
<glyph name="N" format="2">
  <advance width="762"/>
  <unicode hex="004E"/>
  <anchor x="381" y="0" name="bottom"/>
  <anchor x="395" y="700" name="top"/>
  <outline>
    <contour>
      <point x="602" y="-16" type="line"/>
      <point x="650" y="-16" type="line"/>
      <point x="652" y="544" type="line" smooth="yes"/>
      <point x="652" y="615"/>
      <point x="644" y="664"/>
      <point x="719" y="667" type="curve"/>
      <point x="719" y="700" type="line"/>
      <point x="535" y="700" type="line"/>
      <point x="535" y="656" type="line"/>
      <point x="559" y="657"/>
      <point x="583" y="659"/>
      <point x="607" y="660" type="curve"/>
      <point x="605" y="640"/>
      <point x="604" y="615"/>
      <point x="604" y="588" type="curve" smooth="yes"/>
      <point x="603" y="130" type="line"/>
      <point x="602" y="130" type="line"/>
      <point x="585" y="153"/>
      <point x="568" y="175"/>
      <point x="551" y="198" type="curve"/>
      <point x="176" y="700" type="line"/>
      <point x="57" y="700" type="line"/>
      <point x="57" y="656" type="line"/>
      <point x="79" y="657"/>
      <point x="102" y="659"/>
      <point x="124" y="660" type="curve"/>
      <point x="124" y="638"/>
      <point x="124" y="615"/>
      <point x="124" y="593" type="curve"/>
      <point x="123" y="112" type="line" smooth="yes"/>
      <point x="123" y="81"/>
      <point x="118" y="33"/>
      <point x="57" y="33" type="curve"/>
      <point x="57" y="0" type="line"/>
      <point x="240" y="0" type="line"/>
      <point x="240" y="44" type="line"/>
      <point x="216" y="43"/>
      <point x="192" y="41"/>
      <point x="168" y="40" type="curve"/>
      <point x="170" y="72"/>
      <point x="170" y="105"/>
      <point x="170" y="139" type="curve" smooth="yes"/>
      <point x="167" y="567" type="line"/>
      <point x="168" y="567" type="line"/>
      <point x="180" y="551"/>
      <point x="191" y="536"/>
      <point x="203" y="520" type="curve"/>
    </contour>
  </outline>
</glyph>
<glyph name="P" format="2">
  <advance width="606"/>
  <unicode hex="0050"/>
  <outline>
    <contour>
      <point x="55" y="33" type="curve"/>
      <point x="55" y="0" type="line"/>
      <point x="300" y="0" type="line"/>
      <point x="300" y="45" type="line"/>
      <point x="269" y="43"/>
      <point x="239" y="42"/>
      <point x="208" y="40" type="curve"/>
      <point x="210" y="57"/>
      <point x="211" y="83"/>
      <point x="211" y="119" type="curve" smooth="yes"/>
      <point x="211" y="264" type="line"/>
      <point x="224" y="263"/>
      <point x="241" y="263"/>
      <point x="247" y="263" type="curve" smooth="yes"/>
      <point x="521" y="263"/>
      <point x="585" y="404"/>
      <point x="580" y="508" type="curve" smooth="yes"/>
      <point x="574" y="636"/>
      <point x="471" y="702"/>
      <point x="278" y="702" type="curve" smooth="yes"/>
      <point x="200" y="702"/>
      <point x="125" y="701"/>
      <point x="55" y="700" type="curve"/>
      <point x="55" y="656" type="line"/>
      <point x="79" y="657"/>
      <point x="103" y="659"/>
      <point x="127" y="660" type="curve"/>
      <point x="125" y="640"/>
      <point x="124" y="615"/>
      <point x="124" y="588" type="curve" smooth="yes"/>
      <point x="124" y="156" type="line" smooth="yes"/>
      <point x="124" y="85"/>
      <point x="130" y="36"/>
    </contour>
    <contour>
      <point x="211" y="305" type="curve"/>
      <point x="211" y="544" type="line" smooth="yes"/>
      <point x="211" y="615"/>
      <point x="205" y="663"/>
      <point x="276" y="663" type="curve" smooth="yes"/>
      <point x="398" y="663"/>
      <point x="483" y="615"/>
      <point x="483" y="489" type="curve" smooth="yes"/>
      <point x="483" y="372"/>
      <point x="390" y="302"/>
      <point x="276" y="302" type="curve" smooth="yes"/>
      <point x="251" y="302"/>
      <point x="236" y="302"/>
    </contour>
  </outline>
</glyph>
<glyph name="Q" format="2">
  <advance width="796"/>
  <unicode hex="0051"/>
  <outline>
    <contour>
      <point x="754" y="-218" type="curve" smooth="yes"/>
      <point x="786" y="-218" type="line"/>
      <point x="786" y="-185" type="line"/>
      <point x="747" y="-185"/>
      <point x="719" y="-157"/>
      <point x="626" y="-71" type="curve" smooth="yes"/>
      <point x="567" y="-16"/>
      <point x="533" y="-8"/>
      <point x="483" y="-7" type="curve"/>
      <point x="664" y="32"/>
      <point x="750" y="204"/>
      <point x="750" y="350" type="curve" smooth="yes"/>
      <point x="750" y="517"/>
      <point x="638" y="716"/>
      <point x="394" y="716" type="curve" smooth="yes"/>
      <point x="158" y="716"/>
      <point x="46" y="518"/>
      <point x="46" y="350" type="curve" smooth="yes"/>
      <point x="46" y="178"/>
      <point x="146" y="-12"/>
      <point x="395" y="-16" type="curve" smooth="yes"/>
      <point x="459" y="-16"/>
      <point x="495" y="-81"/>
      <point x="585" y="-162" type="curve" smooth="yes"/>
      <point x="647" y="-218"/>
      <point x="682" y="-218"/>
    </contour>
    <contour>
      <point x="404" y="25" type="curve" smooth="yes"/>
      <point x="225" y="25"/>
      <point x="144" y="220"/>
      <point x="144" y="368" type="curve" smooth="yes"/>
      <point x="144" y="516"/>
      <point x="226" y="676"/>
      <point x="391" y="676" type="curve" smooth="yes"/>
      <point x="557" y="676"/>
      <point x="650" y="495"/>
      <point x="650" y="331" type="curve" smooth="yes"/>
      <point x="650" y="184"/>
      <point x="568" y="25"/>
    </contour>
  </outline>
</glyph>
<glyph name="T" format="2">
  <advance width="640"/>
  <unicode hex="0054"/>
  <anchor x="321" y="0" name="bottom"/>
  <anchor x="320" y="350" name="center"/>
  <anchor x="320" y="700" name="top"/>
  <outline>
    <contour>
      <point x="579" y="489" type="curve"/>
      <point x="617" y="489" type="line"/>
      <point x="611" y="700" type="line"/>
      <point x="28" y="700" type="line"/>
      <point x="22" y="489" type="line"/>
      <point x="59" y="489" type="line"/>
      <point x="59" y="607"/>
      <point x="90" y="662"/>
      <point x="174" y="662" type="curve" smooth="yes"/>
      <point x="277" y="663" type="line"/>
      <point x="276" y="156" type="line" smooth="yes"/>
      <point x="276" y="88"/>
      <point x="283" y="36"/>
      <point x="208" y="33" type="curve"/>
      <point x="208" y="0" type="line"/>
      <point x="443" y="0" type="line"/>
      <point x="443" y="44" type="line"/>
      <point x="415" y="43"/>
      <point x="388" y="41"/>
      <point x="360" y="40" type="curve"/>
      <point x="362" y="57"/>
      <point x="363" y="83"/>
      <point x="363" y="119" type="curve" smooth="yes"/>
      <point x="364" y="664" type="line"/>
      <point x="449" y="664" type="line" smooth="yes"/>
      <point x="552" y="665"/>
      <point x="577" y="607"/>
    </contour>
  </outline>
</glyph>
<glyph name="V" format="2">
  <advance width="653"/>
  <unicode hex="0056"/>
  <outline>
    <contour>
      <point x="322" y="-10" type="line"/>
      <point x="350" y="-10" type="line"/>
      <point x="546" y="527"/>
      <point x="553" y="547"/>
      <point x="561" y="569" type="curve" smooth="yes"/>
      <point x="586" y="641"/>
      <point x="612" y="664"/>
      <point x="671" y="667" type="curve"/>
      <point x="671" y="700" type="line"/>
      <point x="468" y="700" type="line"/>
      <point x="468" y="656" type="line"/>
      <point x="494" y="657"/>
      <point x="519" y="659"/>
      <point x="545" y="660" type="curve"/>
      <point x="537" y="644"/>
      <point x="528" y="620"/>
      <point x="516" y="586" type="curve" smooth="yes"/>
      <point x="495" y="527"/>
      <point x="464" y="442"/>
      <point x="405" y="275" type="curve" smooth="yes"/>
      <point x="384" y="216"/>
      <point x="370" y="178"/>
      <point x="355" y="132" type="curve"/>
      <point x="353" y="132" type="line"/>
      <point x="337" y="177"/>
      <point x="304" y="250"/>
      <point x="272" y="325" type="curve" smooth="yes"/>
      <point x="236" y="410"/>
      <point x="209" y="479"/>
      <point x="177" y="558" type="curve" smooth="yes"/>
      <point x="150" y="624"/>
      <point x="160" y="662"/>
      <point x="227" y="666" type="curve"/>
      <point x="228" y="700" type="line"/>
      <point x="-4" y="700" type="line"/>
      <point x="-4" y="656" type="line"/>
      <point x="15" y="657"/>
      <point x="33" y="657"/>
      <point x="52" y="658" type="curve"/>
      <point x="56" y="628"/>
      <point x="66" y="590"/>
      <point x="95" y="522" type="curve" smooth="yes"/>
    </contour>
  </outline>
</glyph>
<glyph name="X" format="2">
  <advance width="649"/>
  <unicode hex="0058"/>
  <outline>
    <contour>
      <point x="12" y="0" type="line"/>
      <point x="208" y="0" type="line"/>
      <point x="208" y="44" type="line"/>
      <point x="180" y="42"/>
      <point x="153" y="41"/>
      <point x="125" y="39" type="curve"/>
      <point x="158" y="77"/>
      <point x="183" y="117"/>
      <point x="207" y="153" type="curve" smooth="yes"/>
      <point x="240" y="203"/>
      <point x="273" y="252"/>
      <point x="306" y="300" type="curve"/>
      <point x="367" y="215"/>
      <point x="422" y="147"/>
      <point x="453" y="106" type="curve" smooth="yes"/>
      <point x="477" y="73"/>
      <point x="488" y="30"/>
      <point x="411" y="33" type="curve"/>
      <point x="411" y="0" type="line"/>
      <point x="656" y="0" type="line"/>
      <point x="656" y="44" type="line"/>
      <point x="637" y="43"/>
      <point x="617" y="43"/>
      <point x="598" y="42" type="curve"/>
      <point x="575" y="73"/>
      <point x="552" y="104"/>
      <point x="529" y="135" type="curve" smooth="yes"/>
      <point x="498" y="176"/>
      <point x="424" y="272"/>
      <point x="353" y="368" type="curve"/>
      <point x="466" y="528" type="line" smooth="yes"/>
      <point x="508" y="588"/>
      <point x="559" y="658"/>
      <point x="623" y="667" type="curve"/>
      <point x="623" y="700" type="line"/>
      <point x="426" y="700" type="line"/>
      <point x="426" y="656" type="line"/>
      <point x="454" y="657"/>
      <point x="482" y="659"/>
      <point x="510" y="660" type="curve"/>
      <point x="489" y="641"/>
      <point x="455" y="592"/>
      <point x="421" y="544" type="curve" smooth="yes"/>
      <point x="325" y="405" type="line"/>
      <point x="273" y="477"/>
      <point x="225" y="544"/>
      <point x="201" y="584" type="curve" smooth="yes"/>
      <point x="178" y="621"/>
      <point x="151" y="662"/>
      <point x="224" y="665" type="curve" smooth="yes"/>
      <point x="268" y="667" type="line"/>
      <point x="268" y="700" type="line"/>
      <point x="9" y="700" type="line"/>
      <point x="9" y="656" type="line"/>
      <point x="27" y="657"/>
      <point x="46" y="657"/>
      <point x="64" y="658" type="curve"/>
      <point x="74" y="632"/>
      <point x="84" y="614"/>
      <point x="110" y="576" type="curve" smooth="yes"/>
      <point x="139" y="534"/>
      <point x="187" y="468"/>
      <point x="279" y="339" type="curve"/>
      <point x="149" y="153" type="line" smooth="yes"/>
      <point x="104" y="87"/>
      <point x="76" y="46"/>
      <point x="12" y="33" type="curve"/>
    </contour>
  </outline>
</glyph>
<glyph name="Y" format="2">
  <advance width="634"/>
  <unicode hex="0059"/>
  <anchor x="317" y="0" name="bottom"/>
  <anchor x="331" y="700" name="top"/>
  <anchor x="20" y="700" name="topleft"/>
  <outline>
    <contour>
      <point x="215" y="0" type="line"/>
      <point x="450" y="0" type="line"/>
      <point x="450" y="44" type="line"/>
      <point x="422" y="43"/>
      <point x="395" y="41"/>
      <point x="367" y="40" type="curve"/>
      <point x="369" y="57"/>
      <point x="370" y="83"/>
      <point x="370" y="119" type="curve" smooth="yes"/>
      <point x="369" y="120"/>
      <point x="370" y="251"/>
      <point x="371" y="300" type="curve"/>
      <point x="410" y="374"/>
      <point x="451" y="452"/>
      <point x="497" y="538" type="curve" smooth="yes"/>
      <point x="543" y="623"/>
      <point x="578" y="663"/>
      <point x="644" y="667" type="curve"/>
      <point x="644" y="700" type="line"/>
      <point x="440" y="700" type="line"/>
      <point x="440" y="656" type="line"/>
      <point x="466" y="657"/>
      <point x="493" y="658"/>
      <point x="519" y="659" type="curve"/>
      <point x="500" y="638"/>
      <point x="481" y="602"/>
      <point x="471" y="583" type="curve"/>
      <point x="386" y="422" type="line"/>
      <point x="372" y="396"/>
      <point x="358" y="369"/>
      <point x="343" y="340" type="curve"/>
      <point x="341" y="340" type="line"/>
      <point x="317" y="373"/>
      <point x="297" y="403"/>
      <point x="279" y="432" type="curve"/>
      <point x="199" y="558" type="line"/>
      <point x="159" y="622"/>
      <point x="160" y="667"/>
      <point x="252" y="667" type="curve"/>
      <point x="252" y="700" type="line"/>
      <point x="-6" y="700" type="line"/>
      <point x="-6" y="656" type="line"/>
      <point x="15" y="657"/>
      <point x="35" y="657"/>
      <point x="56" y="658" type="curve"/>
      <point x="61" y="633"/>
      <point x="76" y="598"/>
      <point x="110" y="545" type="curve" smooth="yes"/>
      <point x="284" y="270" type="line"/>
      <point x="283" y="156" type="line" smooth="yes"/>
      <point x="283" y="88"/>
      <point x="290" y="36"/>
      <point x="215" y="33" type="curve"/>
    </contour>
  </outline>
</glyph>
<glyph name="asciicircum" format="2">
  <advance width="823"/>
  <unicode hex="005E"/>
  <outline>
    <contour>
      <point x="675" y="437" type="line"/>
      <point x="763" y="437" type="line"/>
      <point x="457" y="716" type="line"/>
      <point x="368" y="716" type="line"/>
      <point x="60" y="441" type="line"/>
      <point x="142" y="441" type="line"/>
      <point x="409" y="681" type="line"/>
    </contour>
  </outline>
</glyph>
<glyph name="underscore" format="2">
  <advance width="729"/>
  <unicode hex="005F"/>
  <outline>
    <contour>
      <point x="57" y="-111" type="line"/>
      <point x="672" y="-111" type="line"/>
      <point x="672" y="-54" type="line"/>
      <point x="57" y="-50" type="line"/>
    </contour>
  </outline>
</glyph>
<glyph name="grave" format="2">
  <advance width="252"/>
  <unicode hex="0060"/>
  <anchor x="126" y="500" name="_top"/>
  <outline>
    <contour>
      <point x="179" y="580" type="line"/>
      <point x="207" y="603" type="line"/>
      <point x="123" y="738" type="line" smooth="yes"/>
      <point x="93" y="781"/>
      <point x="63" y="761"/>
      <point x="58" y="757" type="curve" smooth="yes"/>
      <point x="50" y="750"/>
      <point x="31" y="724"/>
      <point x="67" y="686" type="curve" smooth="yes"/>
    </contour>
  </outline>
</glyph>
<glyph name="k" format="2">
  <advance width="537"/>
  <unicode hex="006B"/>
  <anchor x="269" y="0" name="bottom"/>
  <anchor x="287" y="755" name="top"/>
  <outline>
    <contour>
      <point x="35" y="0" type="line"/>
      <point x="239" y="0" type="line"/>
      <point x="239" y="41" type="line"/>
      <point x="218" y="40"/>
      <point x="196" y="39"/>
      <point x="175" y="38" type="curve"/>
      <point x="179" y="61"/>
      <point x="179" y="79"/>
      <point x="179" y="106" type="curve" smooth="yes"/>
      <point x="179" y="243" type="line"/>
      <point x="220" y="245" type="line"/>
      <point x="246" y="220"/>
      <point x="281" y="166"/>
      <point x="333" y="94" type="curve" smooth="yes"/>
      <point x="370" y="46"/>
      <point x="402" y="0"/>
      <point x="439" y="0" type="curve" smooth="yes"/>
      <point x="530" y="0" type="line"/>
      <point x="530" y="30" type="line"/>
      <point x="484" y="30"/>
      <point x="421" y="122"/>
      <point x="409" y="138" type="curve" smooth="yes"/>
      <point x="338" y="229" type="line" smooth="yes"/>
      <point x="319" y="252"/>
      <point x="302" y="271"/>
      <point x="276" y="283" type="curve"/>
      <point x="354" y="365" type="line" smooth="yes"/>
      <point x="390" y="402"/>
      <point x="446" y="463"/>
      <point x="514" y="470" type="curve"/>
      <point x="514" y="500" type="line"/>
      <point x="332" y="500" type="line"/>
      <point x="332" y="460" type="line"/>
      <point x="400" y="463" type="line"/>
      <point x="381" y="451"/>
      <point x="363" y="433"/>
      <point x="341" y="410" type="curve" smooth="yes"/>
      <point x="219" y="282" type="line"/>
      <point x="179" y="282" type="line"/>
      <point x="179" y="755" type="line"/>
      <point x="150" y="755" type="line"/>
      <point x="135" y="741"/>
      <point x="114" y="728"/>
      <point x="26" y="728" type="curve"/>
      <point x="26" y="686" type="line"/>
      <point x="50" y="687"/>
      <point x="73" y="689"/>
      <point x="97" y="690" type="curve"/>
      <point x="94" y="663"/>
      <point x="94" y="646"/>
      <point x="94" y="625" type="curve" smooth="yes"/>
      <point x="93" y="152" type="line" smooth="yes"/>
      <point x="93" y="80"/>
      <point x="96" y="30"/>
      <point x="35" y="30" type="curve"/>
    </contour>
  </outline>
</glyph>
<glyph name="p" format="2">
  <advance width="597"/>
  <unicode hex="0070"/>
  <outline>
    <contour>
      <point x="35" y="-255" type="line"/>
      <point x="239" y="-255" type="line"/>
      <point x="239" y="-214" type="line"/>
      <point x="218" y="-215"/>
      <point x="197" y="-216"/>
      <point x="176" y="-217" type="curve"/>
      <point x="180" y="-194"/>
      <point x="180" y="-176"/>
      <point x="180" y="-149" type="curve" smooth="yes"/>
      <point x="180" y="17" type="line"/>
      <point x="214" y="-5"/>
      <point x="253" y="-16"/>
      <point x="300" y="-16" type="curve" smooth="yes"/>
      <point x="435" y="-16"/>
      <point x="555" y="97"/>
      <point x="555" y="268" type="curve" smooth="yes"/>
      <point x="555" y="422"/>
      <point x="451" y="516"/>
      <point x="335" y="516" type="curve" smooth="yes"/>
      <point x="279" y="516"/>
      <point x="220" y="492"/>
      <point x="180" y="456" type="curve"/>
      <point x="179" y="479"/>
      <point x="177" y="497"/>
      <point x="176" y="510" type="curve"/>
      <point x="146" y="510" type="line"/>
      <point x="132" y="496"/>
      <point x="117" y="483"/>
      <point x="29" y="483" type="curve"/>
      <point x="29" y="441" type="line"/>
      <point x="53" y="442"/>
      <point x="76" y="444"/>
      <point x="100" y="445" type="curve"/>
      <point x="96" y="422"/>
      <point x="96" y="401"/>
      <point x="96" y="380" type="curve" smooth="yes"/>
      <point x="94" y="-103" type="line" smooth="yes"/>
      <point x="93" y="-175"/>
      <point x="96" y="-225"/>
      <point x="35" y="-225" type="curve"/>
    </contour>
    <contour>
      <point x="298" y="24" type="curve" smooth="yes"/>
      <point x="254" y="24"/>
      <point x="214" y="38"/>
      <point x="181" y="63" type="curve"/>
      <point x="182" y="380"/>
      <point x="182" y="396"/>
      <point x="181" y="411" type="curve"/>
      <point x="209" y="441"/>
      <point x="253" y="467"/>
      <point x="299" y="467" type="curve" smooth="yes"/>
      <point x="408" y="467"/>
      <point x="452" y="360"/>
      <point x="452" y="252" type="curve" smooth="yes"/>
      <point x="452" y="120"/>
      <point x="393" y="24"/>
    </contour>
  </outline>
</glyph>
<glyph name="u" format="2">
  <advance width="597"/>
  <unicode hex="0075"/>
  <anchor x="299" y="0" name="bottom"/>
  <anchor x="567" y="0" name="ogonek"/>
  <anchor x="296" y="500" name="top"/>
  <anchor x="554" y="500" name="topright"/>
  <outline>
    <contour>
      <point x="255" y="-16" type="curve" smooth="yes"/>
      <point x="313" y="-16"/>
      <point x="377" y="19"/>
      <point x="418" y="60" type="curve"/>
      <point x="419" y="42"/>
      <point x="421" y="23"/>
      <point x="425" y="0" type="curve"/>
      <point x="568" y="0" type="line"/>
      <point x="568" y="42" type="line"/>
      <point x="544" y="41"/>
      <point x="520" y="39"/>
      <point x="496" y="38" type="curve"/>
      <point x="499" y="65"/>
      <point x="500" y="111"/>
      <point x="500" y="132" type="curve" smooth="yes"/>
      <point x="501" y="510" type="line"/>
      <point x="472" y="510" type="line"/>
      <point x="457" y="496"/>
      <point x="436" y="483"/>
      <point x="379" y="483" type="curve" smooth="yes"/>
      <point x="348" y="483" type="line"/>
      <point x="348" y="442" type="line"/>
      <point x="372" y="443"/>
      <point x="396" y="444"/>
      <point x="420" y="445" type="curve"/>
      <point x="416" y="422"/>
      <point x="415" y="401"/>
      <point x="415" y="369" type="curve" smooth="yes"/>
      <point x="415" y="112" type="line"/>
      <point x="387" y="71"/>
      <point x="337" y="36"/>
      <point x="287" y="35" type="curve" smooth="yes"/>
      <point x="208" y="34"/>
      <point x="179" y="90"/>
      <point x="179" y="205" type="curve" smooth="yes"/>
      <point x="179" y="510" type="line"/>
      <point x="150" y="510" type="line"/>
      <point x="135" y="496"/>
      <point x="114" y="483"/>
      <point x="57" y="483" type="curve" smooth="yes"/>
      <point x="26" y="483" type="line"/>
      <point x="26" y="442" type="line"/>
      <point x="49" y="443"/>
      <point x="72" y="444"/>
      <point x="95" y="445" type="curve"/>
      <point x="91" y="422"/>
      <point x="91" y="401"/>
      <point x="91" y="380" type="curve" smooth="yes"/>
      <point x="91" y="202" type="line" smooth="yes"/>
      <point x="91" y="37"/>
      <point x="146" y="-16"/>
    </contour>
  </outline>
</glyph>
<glyph name="x" format="2">
  <advance width="530"/>
  <unicode hex="0078"/>
  <outline>
    <contour>
      <point x="24" y="0" type="line"/>
      <point x="192" y="0" type="line"/>
      <point x="192" y="41" type="line"/>
      <point x="115" y="38" type="line"/>
      <point x="135" y="59"/>
      <point x="141" y="67"/>
      <point x="161" y="94" type="curve" smooth="yes"/>
      <point x="245" y="209" type="line"/>
      <point x="350" y="79" type="line" smooth="yes"/>
      <point x="378" y="44"/>
      <point x="358" y="30"/>
      <point x="326" y="30" type="curve"/>
      <point x="326" y="0" type="line"/>
      <point x="519" y="0" type="line"/>
      <point x="519" y="41" type="line"/>
      <point x="474" y="38" type="line"/>
      <point x="459" y="63"/>
      <point x="445" y="80"/>
      <point x="430" y="100" type="curve" smooth="yes"/>
      <point x="292" y="271" type="line"/>
      <point x="369" y="363" type="line" smooth="yes"/>
      <point x="423" y="428"/>
      <point x="443" y="454"/>
      <point x="498" y="470" type="curve"/>
      <point x="498" y="500" type="line"/>
      <point x="334" y="500" type="line"/>
      <point x="334" y="459" type="line"/>
      <point x="403" y="463" type="line"/>
      <point x="389" y="449"/>
      <point x="378" y="434"/>
      <point x="358" y="410" type="curve" smooth="yes"/>
      <point x="267" y="300" type="line"/>
      <point x="209" y="379" type="line" smooth="yes"/>
      <point x="159" y="447"/>
      <point x="168" y="468"/>
      <point x="228" y="470" type="curve"/>
      <point x="228" y="500" type="line"/>
      <point x="22" y="500" type="line"/>
      <point x="22" y="459" type="line"/>
      <point x="69" y="461" type="line"/>
      <point x="76" y="443"/>
      <point x="88" y="416"/>
      <point x="120" y="374" type="curve" smooth="yes"/>
      <point x="139" y="349"/>
      <point x="190" y="279"/>
      <point x="219" y="241" type="curve"/>
      <point x="119" y="111" type="line" smooth="yes"/>
      <point x="82" y="63"/>
      <point x="65" y="40"/>
      <point x="24" y="30" type="curve"/>
    </contour>
  </outline>
</glyph>
<glyph name="braceleft" format="2">
  <advance width="334"/>
  <unicode hex="007B"/>
  <outline>
    <contour>
      <point x="294" y="-271" type="curve" smooth="yes"/>
      <point x="322" y="-271" type="line"/>
      <point x="322" y="-243" type="line"/>
      <point x="219" y="-246"/>
      <point x="193" y="-185"/>
      <point x="193" y="-71" type="curve" smooth="yes"/>
      <point x="193" y="-26"/>
      <point x="206" y="78"/>
      <point x="206" y="125" type="curve" smooth="yes"/>
      <point x="206" y="208"/>
      <point x="151" y="251"/>
      <point x="94" y="262" type="curve"/>
      <point x="94" y="264" type="line"/>
      <point x="151" y="275"/>
      <point x="206" y="314"/>
      <point x="206" y="397" type="curve" smooth="yes"/>
      <point x="206" y="444"/>
      <point x="193" y="523"/>
      <point x="193" y="568" type="curve" smooth="yes"/>
      <point x="193" y="682"/>
      <point x="219" y="729"/>
      <point x="322" y="726" type="curve"/>
      <point x="322" y="760" type="line"/>
      <point x="294" y="760" type="line" smooth="yes"/>
      <point x="157" y="760"/>
      <point x="116" y="695"/>
      <point x="116" y="554" type="curve" smooth="yes"/>
      <point x="116" y="495"/>
      <point x="126" y="438"/>
      <point x="126" y="386" type="curve" smooth="yes"/>
      <point x="126" y="318"/>
      <point x="104" y="289"/>
      <point x="30" y="289" type="curve" smooth="yes"/>
      <point x="7" y="289" type="line"/>
      <point x="7" y="237" type="line"/>
      <point x="30" y="237" type="line" smooth="yes"/>
      <point x="104" y="237"/>
      <point x="126" y="204"/>
      <point x="126" y="136" type="curve" smooth="yes"/>
      <point x="126" y="84"/>
      <point x="116" y="2"/>
      <point x="116" y="-57" type="curve" smooth="yes"/>
      <point x="116" y="-198"/>
      <point x="157" y="-271"/>
    </contour>
  </outline>
</glyph>
<glyph name="asciitilde" format="2">
  <advance width="530"/>
  <unicode hex="007E"/>
  <outline>
    <contour>
      <point x="368" y="231" type="curve" smooth="yes"/>
      <point x="421" y="231"/>
      <point x="460" y="253"/>
      <point x="487" y="283" type="curve"/>
      <point x="487" y="346" type="line"/>
      <point x="453" y="315"/>
      <point x="408" y="295"/>
      <point x="360" y="299" type="curve" smooth="yes"/>
      <point x="289" y="305"/>
      <point x="273" y="374"/>
      <point x="170" y="374" type="curve" smooth="yes"/>
      <point x="117" y="374"/>
      <point x="85" y="355"/>
      <point x="43" y="321" type="curve"/>
      <point x="43" y="258" type="line"/>
      <point x="79" y="284"/>
      <point x="111" y="306"/>
      <point x="166" y="306" type="curve" smooth="yes"/>
      <point x="246" y="306"/>
      <point x="268" y="231"/>
    </contour>
  </outline>
</glyph>
<glyph name="yen" format="2">
  <advance width="705"/>
  <unicode hex="00A5"/>
  <outline>
    <contour>
      <point x="249" y="0" type="line"/>
      <point x="484" y="0" type="line"/>
      <point x="484" y="44" type="line"/>
      <point x="456" y="43"/>
      <point x="429" y="41"/>
      <point x="401" y="40" type="curve"/>
      <point x="404" y="66"/>
      <point x="404" y="87"/>
      <point x="403" y="163" type="curve"/>
      <point x="534" y="164" type="line"/>
      <point x="534" y="207" type="line"/>
      <point x="403" y="208" type="line"/>
      <point x="404" y="271" type="line"/>
      <point x="534" y="272" type="line"/>
      <point x="534" y="315" type="line"/>
      <point x="413" y="315" type="line"/>
      <point x="531" y="538" type="line" smooth="yes"/>
      <point x="577" y="623"/>
      <point x="612" y="663"/>
      <point x="678" y="667" type="curve"/>
      <point x="678" y="700" type="line"/>
      <point x="474" y="700" type="line"/>
      <point x="474" y="656" type="line"/>
      <point x="500" y="657"/>
      <point x="527" y="658"/>
      <point x="553" y="659" type="curve"/>
      <point x="534" y="638"/>
      <point x="515" y="602"/>
      <point x="505" y="583" type="curve"/>
      <point x="422" y="426" type="line"/>
      <point x="407" y="399"/>
      <point x="393" y="370"/>
      <point x="377" y="340" type="curve"/>
      <point x="345" y="383"/>
      <point x="337" y="393"/>
      <point x="316" y="426" type="curve"/>
      <point x="233" y="558" type="line"/>
      <point x="193" y="622"/>
      <point x="194" y="667"/>
      <point x="286" y="667" type="curve"/>
      <point x="286" y="700" type="line"/>
      <point x="28" y="700" type="line"/>
      <point x="28" y="656" type="line"/>
      <point x="49" y="657"/>
      <point x="69" y="657"/>
      <point x="90" y="658" type="curve"/>
      <point x="95" y="633"/>
      <point x="110" y="598"/>
      <point x="144" y="545" type="curve" smooth="yes"/>
      <point x="288" y="316" type="line"/>
      <point x="189" y="317" type="line"/>
      <point x="189" y="270" type="line"/>
      <point x="317" y="271" type="line"/>
      <point x="317" y="208" type="line"/>
      <point x="189" y="209" type="line"/>
      <point x="189" y="162" type="line"/>
      <point x="317" y="163" type="line"/>
      <point x="317" y="59"/>
      <point x="311" y="35"/>
      <point x="249" y="33" type="curve"/>
    </contour>
  </outline>
</glyph>
<glyph name="logicalnot" format="2">
  <advance width="530"/>
  <unicode hex="00AC"/>
  <outline>
    <contour>
      <point x="430" y="157" type="line"/>
      <point x="482" y="157" type="line"/>
      <point x="482" y="342" type="line"/>
      <point x="36" y="344" type="line"/>
      <point x="36" y="282" type="line"/>
      <point x="427" y="284" type="line"/>
    </contour>
  </outline>
</glyph>
<glyph name="cedilla" format="2">
  <advance width="292"/>
  <unicode hex="00B8"/>
  <anchor x="146" y="0" name="_bottom"/>
  <outline>
    <contour>
      <point x="51" y="-241" type="line"/>
      <point x="119" y="-231"/>
      <point x="247" y="-204"/>
      <point x="247" y="-123" type="curve" smooth="yes"/>
      <point x="247" y="-83"/>
      <point x="221" y="-57"/>
      <point x="180" y="-57" type="curve" smooth="yes"/>
      <point x="157" y="-57"/>
      <point x="131" y="-63"/>
      <point x="112" y="-74" type="curve"/>
      <point x="139" y="8" type="line"/>
      <point x="83" y="8" type="line"/>
      <point x="54" y="-100" type="line"/>
      <point x="88" y="-116" type="line"/>
      <point x="116" y="-97"/>
      <point x="165" y="-91"/>
      <point x="165" y="-131" type="curve" smooth="yes"/>
      <point x="165" y="-170"/>
      <point x="113" y="-195"/>
      <point x="45" y="-208" type="curve"/>
    </contour>
  </outline>
</glyph>
<glyph name="onesuperior" format="2">
  <advance width="283"/>
  <unicode hex="00B9"/>
  <outline>
    <contour>
      <point x="76" y="301" type="line"/>
      <point x="231" y="301" type="line"/>
      <point x="231" y="335" type="line"/>
      <point x="214" y="334"/>
      <point x="197" y="334"/>
      <point x="180" y="333" type="curve"/>
      <point x="182" y="344"/>
      <point x="182" y="357"/>
      <point x="182" y="372" type="curve" smooth="yes"/>
      <point x="181" y="716" type="line"/>
      <point x="156" y="716" type="line"/>
      <point x="45" y="635" type="line"/>
      <point x="61" y="607" type="line"/>
      <point x="125" y="644" type="line"/>
      <point x="125" y="403" type="line" smooth="yes"/>
      <point x="125" y="362"/>
      <point x="117" y="329"/>
      <point x="76" y="329" type="curve"/>
    </contour>
  </outline>
</glyph>
<glyph name="Oslash" format="2">
  <advance width="794"/>
  <unicode hex="00D8"/>
  <anchor x="397" y="0" name="bottom"/>
  <anchor x="397" y="700" name="top"/>
  <outline>
    <contour>
      <point x="611" y="755" type="line"/>
      <point x="145" y="-50" type="line"/>
      <point x="193" y="-80" type="line"/>
      <point x="665" y="721" type="line"/>
    </contour>
    <component base="O" xOffset="-1"/>
  </outline>
</glyph>
<glyph name="Thorn" format="2">
  <advance width="596"/>
  <unicode hex="00DE"/>
  <outline>
    <contour>
      <point x="55" y="0" type="line"/>
      <point x="280" y="0" type="line"/>
      <point x="280" y="44" type="line"/>
      <point x="256" y="43"/>
      <point x="232" y="41"/>
      <point x="208" y="40" type="curve"/>
      <point x="210" y="59"/>
      <point x="211" y="90"/>
      <point x="211" y="161" type="curve"/>
      <point x="220" y="161"/>
      <point x="228" y="161"/>
      <point x="237" y="161" type="curve" smooth="yes"/>
      <point x="511" y="161"/>
      <point x="577" y="288"/>
      <point x="570" y="392" type="curve" smooth="yes"/>
      <point x="562" y="520"/>
      <point x="458" y="579"/>
      <point x="265" y="579" type="curve" smooth="yes"/>
      <point x="211" y="578" type="line"/>
      <point x="211" y="630"/>
      <point x="218" y="665"/>
      <point x="280" y="667" type="curve"/>
      <point x="280" y="700" type="line"/>
      <point x="55" y="700" type="line"/>
      <point x="55" y="656" type="line"/>
      <point x="79" y="657"/>
      <point x="103" y="659"/>
      <point x="127" y="660" type="curve"/>
      <point x="125" y="640"/>
      <point x="124" y="615"/>
      <point x="124" y="588" type="curve" smooth="yes"/>
      <point x="124" y="156" type="line" smooth="yes"/>
      <point x="124" y="85"/>
      <point x="130" y="36"/>
      <point x="55" y="33" type="curve"/>
    </contour>
    <contour>
      <point x="276" y="200" type="curve" smooth="yes"/>
      <point x="252" y="199"/>
      <point x="235" y="199"/>
      <point x="211" y="203" type="curve"/>
      <point x="211" y="539" type="line"/>
      <point x="230" y="540"/>
      <point x="247" y="541"/>
      <point x="271" y="541" type="curve" smooth="yes"/>
      <point x="404" y="541"/>
      <point x="473" y="483"/>
      <point x="473" y="377" type="curve" smooth="yes"/>
      <point x="473" y="278"/>
      <point x="410" y="203"/>
    </contour>
  </outline>
</glyph>
<glyph name="oslash" format="2">
  <advance width="585"/>
  <unicode hex="00F8"/>
  <anchor x="293" y="500" name="top"/>
  <outline>
    <contour>
      <point x="117" y="-75" type="line"/>
      <point x="513" y="534" type="line"/>
      <point x="466" y="565" type="line"/>
      <point x="80" y="-48" type="line"/>
    </contour>
    <contour>
      <point x="292" y="-16" type="curve" smooth="yes"/>
      <point x="434" y="-16"/>
      <point x="544" y="107"/>
      <point x="544" y="262" type="curve" smooth="yes"/>
      <point x="544" y="407"/>
      <point x="432" y="516"/>
      <point x="292" y="516" type="curve" smooth="yes"/>
      <point x="150" y="516"/>
      <point x="41" y="396"/>
      <point x="41" y="238" type="curve" smooth="yes"/>
      <point x="41" y="90"/>
      <point x="152" y="-16"/>
    </contour>
    <contour>
      <point x="300" y="24" type="curve" smooth="yes"/>
      <point x="194" y="24"/>
      <point x="143" y="143"/>
      <point x="143" y="267" type="curve" smooth="yes"/>
      <point x="143" y="376"/>
      <point x="187" y="478"/>
      <point x="292" y="478" type="curve" smooth="yes"/>
      <point x="399" y="478"/>
      <point x="442" y="353"/>
      <point x="442" y="233" type="curve" smooth="yes"/>
      <point x="442" y="127"/>
      <point x="405" y="24"/>
    </contour>
  </outline>
</glyph>
<glyph name="Lcaron" format="2">
  <advance width="578"/>
  <unicode hex="013D"/>
  <outline>
    <contour>
      <point x="55" y="0" type="line"/>
      <point x="551" y="0" type="line"/>
      <point x="557" y="207" type="line"/>
      <point x="523" y="207" type="line"/>
      <point x="523" y="89"/>
      <point x="479" y="41"/>
      <point x="395" y="40" type="curve" smooth="yes"/>
      <point x="208" y="37" type="line"/>
      <point x="210" y="54"/>
      <point x="211" y="79"/>
      <point x="211" y="115" type="curve" smooth="yes"/>
      <point x="211" y="544" type="line" smooth="yes"/>
      <point x="211" y="615"/>
      <point x="205" y="664"/>
      <point x="280" y="667" type="curve"/>
      <point x="280" y="700" type="line"/>
      <point x="55" y="700" type="line"/>
      <point x="55" y="656" type="line"/>
      <point x="79" y="657"/>
      <point x="103" y="659"/>
      <point x="127" y="660" type="curve"/>
      <point x="125" y="640"/>
      <point x="124" y="615"/>
      <point x="124" y="588" type="curve" smooth="yes"/>
      <point x="124" y="156" type="line" smooth="yes"/>
      <point x="124" y="85"/>
      <point x="130" y="36"/>
      <point x="55" y="33" type="curve"/>
    </contour>
    <contour>
      <point x="415" y="488" type="line"/>
      <point x="457" y="530"/>
      <point x="492" y="583"/>
      <point x="497" y="636" type="curve" smooth="yes"/>
      <point x="500" y="660"/>
      <point x="497" y="673"/>
      <point x="486" y="696" type="curve"/>
      <point x="417" y="709" type="line"/>
      <point x="432" y="650"/>
      <point x="433" y="592"/>
      <point x="389" y="508" type="curve"/>
    </contour>
  </outline>
</glyph>
<glyph name="Lslash" format="2">
  <advance width="578"/>
  <unicode hex="0141"/>
  <outline>
    <contour>
      <point x="48" y="228" type="line"/>
      <point x="390" y="481" type="line"/>
      <point x="390" y="536" type="line"/>
      <point x="48" y="284" type="line"/>
    </contour>
    <component base="L"/>
  </outline>
</glyph>
<glyph name="eng" format="2">
  <advance width="588"/>
  <unicode hex="014B"/>
  <outline>
    <contour>
      <point x="329" y="-271" type="curve" smooth="yes"/>
      <point x="437" y="-271"/>
      <point x="518" y="-190"/>
      <point x="518" y="-3" type="curve" smooth="yes"/>
      <point x="518" y="292" type="line" smooth="yes"/>
      <point x="518" y="445"/>
      <point x="467" y="516"/>
      <point x="351" y="516" type="curve" smooth="yes"/>
      <point x="293" y="516"/>
      <point x="231" y="487"/>
      <point x="188" y="449" type="curve"/>
      <point x="187" y="477"/>
      <point x="186" y="495"/>
      <point x="184" y="510" type="curve"/>
      <point x="155" y="510" type="line"/>
      <point x="140" y="496"/>
      <point x="125" y="483"/>
      <point x="37" y="483" type="curve"/>
      <point x="37" y="441" type="line"/>
      <point x="61" y="442"/>
      <point x="84" y="444"/>
      <point x="108" y="445" type="curve"/>
      <point x="104" y="422"/>
      <point x="104" y="401"/>
      <point x="104" y="380" type="curve" smooth="yes"/>
      <point x="103" y="152" type="line" smooth="yes"/>
      <point x="102" y="80"/>
      <point x="105" y="30"/>
      <point x="44" y="30" type="curve"/>
      <point x="44" y="0" type="line"/>
      <point x="248" y="0" type="line"/>
      <point x="248" y="41" type="line"/>
      <point x="227" y="40"/>
      <point x="206" y="39"/>
      <point x="185" y="38" type="curve"/>
      <point x="189" y="61"/>
      <point x="189" y="79"/>
      <point x="189" y="106" type="curve" smooth="yes"/>
      <point x="190" y="361" type="line" smooth="yes"/>
      <point x="190" y="375"/>
      <point x="190" y="389"/>
      <point x="189" y="400" type="curve"/>
      <point x="219" y="437"/>
      <point x="269" y="464"/>
      <point x="317" y="465" type="curve" smooth="yes"/>
      <point x="396" y="466"/>
      <point x="431" y="406"/>
      <point x="432" y="292" type="curve" smooth="yes"/>
      <point x="431" y="-86" type="line" smooth="yes"/>
      <point x="431" y="-157"/>
      <point x="422" y="-217"/>
      <point x="366" y="-225" type="curve" smooth="yes"/>
      <point x="357" y="-225"/>
      <point x="346" y="-224"/>
      <point x="336" y="-219" type="curve"/>
      <point x="337" y="-216"/>
      <point x="337" y="-213"/>
      <point x="337" y="-210" type="curve" smooth="yes"/>
      <point x="337" y="-194"/>
      <point x="326" y="-167"/>
      <point x="293" y="-168" type="curve" smooth="yes"/>
      <point x="266" y="-169"/>
      <point x="250" y="-191"/>
      <point x="250" y="-215" type="curve" smooth="yes"/>
      <point x="250" y="-244"/>
      <point x="274" y="-271"/>
    </contour>
  </outline>
</glyph>
<glyph name="tcaron" format="2">
  <advance width="387"/>
  <unicode hex="0165"/>
  <outline>
    <contour>
      <point x="232" y="-16" type="curve" smooth="yes"/>
      <point x="265" y="-16"/>
      <point x="324" y="-9"/>
      <point x="383" y="79" type="curve"/>
      <point x="356" y="101" type="line"/>
      <point x="330" y="63"/>
      <point x="297" y="41"/>
      <point x="260" y="41" type="curve" smooth="yes"/>
      <point x="205" y="41"/>
      <point x="184" y="90"/>
      <point x="184" y="181" type="curve"/>
      <point x="186" y="459" type="line"/>
      <point x="354" y="461" type="line"/>
      <point x="354" y="500" type="line"/>
      <point x="186" y="500" type="line"/>
      <point x="186" y="640" type="line"/>
      <point x="152" y="640" type="line"/>
      <point x="135" y="563"/>
      <point x="72" y="501"/>
      <point x="21" y="500" type="curve"/>
      <point x="21" y="457" type="line"/>
      <point x="98" y="458" type="line"/>
      <point x="96" y="168" type="line" smooth="yes"/>
      <point x="95" y="8"/>
      <point x="171" y="-16"/>
    </contour>
    <contour>
      <point x="299" y="565" type="line"/>
      <point x="345" y="611"/>
      <point x="381" y="668"/>
      <point x="381" y="722" type="curve" smooth="yes"/>
      <point x="381" y="740"/>
      <point x="378" y="757"/>
      <point x="370" y="773" type="curve"/>
      <point x="301" y="786" type="line"/>
      <point x="316" y="727"/>
      <point x="317" y="669"/>
      <point x="273" y="585" type="curve"/>
    </contour>
  </outline>
</glyph>
<glyph name="florin" format="2">
  <advance width="343"/>
  <unicode hex="0192"/>
  <outline>
    <contour>
      <point x="-44" y="-271" type="curve" smooth="yes"/>
      <point x="162" y="-271"/>
      <point x="161" y="-7"/>
      <point x="180" y="236" type="curve" smooth="yes"/>
      <point x="186" y="314"/>
      <point x="189" y="391"/>
      <point x="193" y="460" type="curve"/>
      <point x="337" y="462" type="line"/>
      <point x="340" y="501" type="line"/>
      <point x="196" y="501" type="line"/>
      <point x="206" y="626"/>
      <point x="225" y="715"/>
      <point x="287" y="721" type="curve" smooth="yes"/>
      <point x="298" y="722"/>
      <point x="311" y="721"/>
      <point x="317" y="717" type="curve"/>
      <point x="312" y="688"/>
      <point x="329" y="665"/>
      <point x="357" y="665" type="curve" smooth="yes"/>
      <point x="384" y="665"/>
      <point x="397" y="685"/>
      <point x="397" y="707" type="curve" smooth="yes"/>
      <point x="397" y="745"/>
      <point x="344" y="760"/>
      <point x="313" y="760" type="curve" smooth="yes"/>
      <point x="185" y="760"/>
      <point x="142" y="647"/>
      <point x="121" y="501" type="curve"/>
      <point x="33" y="501" type="line"/>
      <point x="28" y="458" type="line"/>
      <point x="115" y="459" type="line"/>
      <point x="107" y="390"/>
      <point x="104" y="316"/>
      <point x="98" y="245" type="curve" smooth="yes"/>
      <point x="79" y="1"/>
      <point x="84" y="-232"/>
      <point x="-10" y="-232" type="curve" smooth="yes"/>
      <point x="-17" y="-232"/>
      <point x="-30" y="-231"/>
      <point x="-39" y="-225" type="curve"/>
      <point x="-35" y="-196"/>
      <point x="-51" y="-173"/>
      <point x="-78" y="-173" type="curve" smooth="yes"/>
      <point x="-107" y="-173"/>
      <point x="-121" y="-192"/>
      <point x="-121" y="-219" type="curve" smooth="yes"/>
      <point x="-121" y="-251"/>
      <point x="-87" y="-271"/>
    </contour>
  </outline>
</glyph>
<glyph name="Uhorn" format="2">
  <advance width="752"/>
  <unicode hex="01AF"/>
  <anchor x="376" y="0" name="bottom"/>
  <anchor x="497" y="5" name="ogonek"/>
  <anchor x="388" y="700" name="top"/>
  <anchor x="687" y="700" name="topright"/>
  <outline>
    <contour>
      <point x="255" y="667" type="curve"/>
      <point x="255" y="700" type="line"/>
      <point x="31" y="700" type="line"/>
      <point x="31" y="657" type="line"/>
      <point x="55" y="658"/>
      <point x="79" y="659"/>
      <point x="103" y="660" type="curve"/>
      <point x="101" y="634"/>
      <point x="99" y="579"/>
      <point x="99" y="544" type="curve" smooth="yes"/>
      <point x="99" y="341" type="line" smooth="yes"/>
      <point x="99" y="94"/>
      <point x="167" y="-16"/>
      <point x="381" y="-16" type="curve" smooth="yes"/>
      <point x="582" y="-16"/>
      <point x="649" y="138"/>
      <point x="650" y="312" type="curve" smooth="yes"/>
      <point x="652" y="700" type="line"/>
      <point x="536" y="700" type="line"/>
      <point x="536" y="656" type="line"/>
      <point x="560" y="657"/>
      <point x="583" y="659"/>
      <point x="607" y="660" type="curve"/>
      <point x="605" y="640"/>
      <point x="604" y="615"/>
      <point x="604" y="588" type="curve" smooth="yes"/>
      <point x="601" y="307" type="line" smooth="yes"/>
      <point x="599" y="151"/>
      <point x="538" y="41"/>
      <point x="394" y="41" type="curve" smooth="yes"/>
      <point x="214" y="41"/>
      <point x="187" y="187"/>
      <point x="187" y="336" type="curve" smooth="yes"/>
      <point x="187" y="588" type="line" smooth="yes"/>
      <point x="187" y="615"/>
      <point x="188" y="667"/>
    </contour>
    <component base="horncomb" xOffset="386" yOffset="200"/>
  </outline>
</glyph>
<glyph name="breve" format="2">
  <advance width="363"/>
  <unicode hex="02D8"/>
  <anchor x="182" y="500" name="_top"/>
  <outline>
    <contour>
      <point x="180" y="604" type="curve" smooth="yes"/>
      <point x="242" y="604"/>
      <point x="289" y="645"/>
      <point x="318" y="725" type="curve"/>
      <point x="291" y="737" type="line"/>
      <point x="272" y="700"/>
      <point x="229" y="665"/>
      <point x="183" y="665" type="curve" smooth="yes"/>
      <point x="137" y="665"/>
      <point x="94" y="698"/>
      <point x="74" y="735" type="curve"/>
      <point x="45" y="720" type="line"/>
      <point x="70" y="641"/>
      <point x="128" y="604"/>
    </contour>
  </outline>
</glyph>
<glyph name="dotaccent" format="2">
  <advance width="198"/>
  <unicode hex="02D9"/>
  <anchor x="99" y="500" name="_top"/>
  <outline>
    <contour>
      <point x="99.24" y="609.28" type="curve" smooth="yes"/>
      <point x="127.76" y="609.28"/>
      <point x="153.52" y="635.04"/>
      <point x="153.52" y="668.16" type="curve" smooth="yes"/>
      <point x="153.52" y="701.28"/>
      <point x="130.52" y="727.96"/>
      <point x="100.16" y="727.96" type="curve" smooth="yes"/>
      <point x="71.64" y="727.96"/>
      <point x="45.88" y="701.28"/>
      <point x="45.88" y="668.16" type="curve" smooth="yes"/>
      <point x="45.88" y="635.04"/>
      <point x="70.72" y="609.28"/>
    </contour>
  </outline>
</glyph>
<glyph name="dotaccentcomb" format="2">
  <unicode hex="0307"/>
  <anchor x="99" y="500" name="_top"/>
  <anchor x="99" y="727.96" name="top"/>
  <outline>
    <contour>
      <point x="99" y="609" type="curve" smooth="yes"/>
      <point x="128" y="609"/>
      <point x="154" y="635"/>
      <point x="154" y="668" type="curve" smooth="yes"/>
      <point x="154" y="701"/>
      <point x="131" y="728"/>
      <point x="100" y="728" type="curve" smooth="yes"/>
      <point x="72" y="728"/>
      <point x="46" y="701"/>
      <point x="46" y="668" type="curve" smooth="yes"/>
      <point x="46" y="635"/>
      <point x="71" y="609"/>
    </contour>
  </outline>
</glyph>
<glyph name="Delta" format="2">
  <advance width="698"/>
  <unicode hex="0394"/>
  <outline>
    <contour>
      <point x="28" y="0" type="line"/>
      <point x="671" y="0" type="line"/>
      <point x="381" y="716" type="line"/>
      <point x="301" y="716" type="line"/>
    </contour>
    <contour>
      <point x="560" y="58" type="line"/>
      <point x="110" y="61" type="line"/>
      <point x="329" y="651" type="line"/>
    </contour>
  </outline>
</glyph>
<glyph name="Be-cy" format="2">
  <advance width="622"/>
  <unicode hex="0411"/>
  <outline>
    <contour>
      <point x="487" y="525" type="curve"/>
      <point x="524" y="525" type="line"/>
      <point x="519" y="700" type="line"/>
      <point x="55" y="700" type="line"/>
      <point x="55" y="656" type="line"/>
      <point x="79" y="657"/>
      <point x="103" y="659"/>
      <point x="127" y="660" type="curve"/>
      <point x="125" y="640"/>
      <point x="124" y="615"/>
      <point x="124" y="588" type="curve" smooth="yes"/>
      <point x="124" y="161" type="line" smooth="yes"/>
      <point x="124" y="86"/>
      <point x="130" y="35"/>
      <point x="55" y="33" type="curve"/>
      <point x="55" y="0" type="line"/>
      <point x="347" y="0" type="line" smooth="yes"/>
      <point x="482" y="0"/>
      <point x="583" y="75"/>
      <point x="583" y="203" type="curve" smooth="yes"/>
      <point x="583" y="324"/>
      <point x="512" y="406"/>
      <point x="292" y="399" type="curve" smooth="yes"/>
      <point x="211" y="397" type="line"/>
      <point x="211" y="540" type="line" smooth="yes"/>
      <point x="211" y="609"/>
      <point x="206" y="661"/>
      <point x="280" y="663" type="curve" smooth="yes"/>
      <point x="353" y="665" type="line" smooth="yes"/>
      <point x="428" y="667"/>
      <point x="487" y="643"/>
    </contour>
    <contour>
      <point x="211" y="118" type="curve" smooth="yes"/>
      <point x="211" y="359" type="line"/>
      <point x="243" y="361"/>
      <point x="274" y="362"/>
      <point x="314" y="362" type="curve" smooth="yes"/>
      <point x="405" y="362"/>
      <point x="484" y="328"/>
      <point x="484" y="197" type="curve" smooth="yes"/>
      <point x="484" y="91"/>
      <point x="417" y="38"/>
      <point x="314" y="38" type="curve" smooth="yes"/>
      <point x="301" y="38"/>
      <point x="239" y="37"/>
      <point x="208" y="40" type="curve"/>
      <point x="210" y="57"/>
      <point x="211" y="82"/>
    </contour>
  </outline>
</glyph>
<glyph name="U-cy" format="2">
  <advance width="610"/>
  <unicode hex="0423"/>
  <anchor x="317" y="700" name="top"/>
  <outline>
    <contour>
      <point x="188" y="-17" type="curve" smooth="yes"/>
      <point x="258" y="-17"/>
      <point x="292" y="39"/>
      <point x="338" y="149" type="curve" smooth="yes"/>
      <point x="500" y="540" type="line" smooth="yes"/>
      <point x="533" y="622"/>
      <point x="548" y="663"/>
      <point x="623" y="667" type="curve"/>
      <point x="623" y="700" type="line"/>
      <point x="418" y="700" type="line"/>
      <point x="418" y="656" type="line"/>
      <point x="497" y="659" type="line"/>
      <point x="483" y="642"/>
      <point x="465" y="592"/>
      <point x="452" y="552" type="curve" smooth="yes"/>
      <point x="418" y="454"/>
      <point x="284" y="118"/>
      <point x="258" y="73" type="curve" smooth="yes"/>
      <point x="240" y="41"/>
      <point x="227" y="28"/>
      <point x="211" y="28" type="curve" smooth="yes"/>
      <point x="205" y="28"/>
      <point x="200" y="30"/>
      <point x="194" y="32" type="curve"/>
      <point x="200" y="39"/>
      <point x="203" y="45"/>
      <point x="203" y="57" type="curve" smooth="yes"/>
      <point x="203" y="78"/>
      <point x="188" y="101"/>
      <point x="157" y="100" type="curve" smooth="yes"/>
      <point x="126" y="99"/>
      <point x="106" y="76"/>
      <point x="106" y="44" type="curve" smooth="yes"/>
      <point x="106" y="-2"/>
      <point x="146" y="-17"/>
    </contour>
    <contour>
      <point x="299" y="147" type="line"/>
      <point x="342" y="241" type="line"/>
      <point x="324" y="278"/>
      <point x="305" y="314"/>
      <point x="287" y="351" type="curve"/>
      <point x="184" y="558" type="line" smooth="yes"/>
      <point x="151" y="622"/>
      <point x="152" y="667"/>
      <point x="236" y="667" type="curve"/>
      <point x="236" y="700" type="line"/>
      <point x="-5" y="700" type="line"/>
      <point x="-5" y="656" type="line"/>
      <point x="57" y="658" type="line"/>
      <point x="62" y="633"/>
      <point x="71" y="599"/>
      <point x="98" y="546" type="curve" smooth="yes"/>
    </contour>
  </outline>
</glyph>
<glyph name="Hardsign-cy" format="2">
  <advance width="718"/>
  <unicode hex="042A"/>
  <outline>
    <contour>
      <point x="172" y="0" type="line"/>
      <point x="459" y="0" type="line" smooth="yes"/>
      <point x="590" y="0"/>
      <point x="686" y="73"/>
      <point x="686" y="213" type="curve" smooth="yes"/>
      <point x="686" y="331"/>
      <point x="614" y="416"/>
      <point x="404" y="410" type="curve" smooth="yes"/>
      <point x="329" y="407" type="line"/>
      <point x="329" y="544" type="line" smooth="yes"/>
      <point x="329" y="615"/>
      <point x="322" y="664"/>
      <point x="397" y="667" type="curve"/>
      <point x="397" y="700" type="line"/>
      <point x="28" y="700" type="line"/>
      <point x="22" y="489" type="line"/>
      <point x="59" y="489" type="line"/>
      <point x="59" y="607"/>
      <point x="90" y="659"/>
      <point x="174" y="659" type="curve" smooth="yes"/>
      <point x="245" y="660" type="line"/>
      <point x="242" y="640"/>
      <point x="241" y="615"/>
      <point x="241" y="588" type="curve" smooth="yes"/>
      <point x="241" y="156" type="line" smooth="yes"/>
      <point x="242" y="83"/>
      <point x="246" y="35"/>
      <point x="172" y="33" type="curve"/>
    </contour>
    <contour>
      <point x="325" y="40" type="curve"/>
      <point x="330" y="66"/>
      <point x="329" y="94"/>
      <point x="329" y="369" type="curve"/>
      <point x="360" y="371"/>
      <point x="387" y="372"/>
      <point x="426" y="372" type="curve" smooth="yes"/>
      <point x="508" y="372"/>
      <point x="589" y="336"/>
      <point x="589" y="209" type="curve" smooth="yes"/>
      <point x="589" y="90"/>
      <point x="520" y="38"/>
      <point x="426" y="38" type="curve" smooth="yes"/>
      <point x="414" y="38"/>
      <point x="356" y="37"/>
    </contour>
  </outline>
</glyph>
<glyph name="Softsign-cy" format="2">
  <advance width="615"/>
  <unicode hex="042C"/>
  <outline>
    <contour>
      <point x="280" y="667" type="curve"/>
      <point x="280" y="700" type="line"/>
      <point x="55" y="700" type="line"/>
      <point x="55" y="656" type="line"/>
      <point x="79" y="657"/>
      <point x="103" y="659"/>
      <point x="127" y="660" type="curve"/>
      <point x="125" y="640"/>
      <point x="124" y="615"/>
      <point x="124" y="588" type="curve" smooth="yes"/>
      <point x="124" y="156" type="line" smooth="yes"/>
      <point x="124" y="84"/>
      <point x="129" y="35"/>
      <point x="55" y="33" type="curve"/>
      <point x="55" y="0" type="line"/>
      <point x="347" y="0" type="line" smooth="yes"/>
      <point x="482" y="0"/>
      <point x="583" y="73"/>
      <point x="583" y="213" type="curve" smooth="yes"/>
      <point x="583" y="331"/>
      <point x="512" y="416"/>
      <point x="292" y="410" type="curve" smooth="yes"/>
      <point x="211" y="407" type="line"/>
      <point x="211" y="544" type="line" smooth="yes"/>
      <point x="211" y="615"/>
      <point x="205" y="664"/>
    </contour>
    <contour>
      <point x="211" y="118" type="curve" smooth="yes"/>
      <point x="211" y="369" type="line"/>
      <point x="243" y="371"/>
      <point x="274" y="372"/>
      <point x="314" y="372" type="curve" smooth="yes"/>
      <point x="405" y="372"/>
      <point x="486" y="336"/>
      <point x="486" y="209" type="curve" smooth="yes"/>
      <point x="486" y="90"/>
      <point x="417" y="38"/>
      <point x="314" y="38" type="curve" smooth="yes"/>
      <point x="301" y="38"/>
      <point x="239" y="37"/>
      <point x="208" y="40" type="curve"/>
      <point x="210" y="57"/>
      <point x="211" y="82"/>
    </contour>
  </outline>
</glyph>
<glyph name="be-cy" format="2">
  <advance width="544"/>
  <unicode hex="0431"/>
  <outline>
    <contour>
      <point x="273" y="-15" type="curve" smooth="yes"/>
      <point x="403" y="-15"/>
      <point x="508" y="89"/>
      <point x="508" y="250" type="curve" smooth="yes"/>
      <point x="508" y="400"/>
      <point x="411" y="481"/>
      <point x="286" y="481" type="curve" smooth="yes"/>
      <point x="189" y="481"/>
      <point x="125" y="430"/>
      <point x="95" y="352" type="curve"/>
      <point x="88" y="352" type="line"/>
      <point x="87" y="466"/>
      <point x="130" y="563"/>
      <point x="232" y="594" type="curve" smooth="yes"/>
      <point x="279" y="608"/>
      <point x="336" y="608"/>
      <point x="391" y="627" type="curve" smooth="yes"/>
      <point x="460" y="651"/>
      <point x="463" y="684"/>
      <point x="478" y="749" type="curve"/>
      <point x="443" y="760" type="line"/>
      <point x="432" y="730"/>
      <point x="417" y="722"/>
      <point x="382" y="712" type="curve" smooth="yes"/>
      <point x="329" y="698"/>
      <point x="276" y="699"/>
      <point x="226" y="679" type="curve" smooth="yes"/>
      <point x="94" y="629"/>
      <point x="42" y="474"/>
      <point x="42" y="299" type="curve" smooth="yes"/>
      <point x="42" y="87"/>
      <point x="145" y="-15"/>
    </contour>
    <contour>
      <point x="277" y="23" type="curve" smooth="yes"/>
      <point x="185" y="23"/>
      <point x="136" y="110"/>
      <point x="136" y="254" type="curve" smooth="yes"/>
      <point x="136" y="353"/>
      <point x="178" y="445"/>
      <point x="268" y="445" type="curve" smooth="yes"/>
      <point x="370" y="445"/>
      <point x="411" y="331"/>
      <point x="411" y="222" type="curve" smooth="yes"/>
      <point x="411" y="121"/>
      <point x="375" y="23"/>
    </contour>
  </outline>
</glyph>
<glyph name="ge-cy" format="2">
  <advance width="438"/>
  <unicode hex="0433"/>
  <anchor x="190" y="0" name="bottomright"/>
  <anchor x="273" y="500" name="top"/>
  <outline>
    <contour>
      <point x="44" y="0" type="line"/>
      <point x="248" y="0" type="line"/>
      <point x="248" y="41" type="line"/>
      <point x="185" y="38" type="line"/>
      <point x="189" y="61"/>
      <point x="189" y="79"/>
      <point x="189" y="106" type="curve" smooth="yes"/>
      <point x="190" y="460" type="line"/>
      <point x="251" y="460" type="line"/>
      <point x="359" y="460"/>
      <point x="385" y="433"/>
      <point x="387" y="349" type="curve"/>
      <point x="425" y="349" type="line"/>
      <point x="421" y="500" type="line"/>
      <point x="45" y="500" type="line"/>
      <point x="45" y="459" type="line"/>
      <point x="66" y="460"/>
      <point x="87" y="461"/>
      <point x="108" y="462" type="curve"/>
      <point x="104" y="439"/>
      <point x="104" y="421"/>
      <point x="104" y="394" type="curve" smooth="yes"/>
      <point x="104" y="152" type="line" smooth="yes"/>
      <point x="103" y="80"/>
      <point x="105" y="30"/>
      <point x="44" y="30" type="curve"/>
    </contour>
  </outline>
</glyph>
<glyph name="ze-cy" format="2">
  <advance width="459"/>
  <unicode hex="0437"/>
  <anchor x="230" y="0" name="bottom"/>
  <anchor x="225" y="500" name="top"/>
  <outline>
    <contour>
      <point x="228" y="-16" type="curve" smooth="yes"/>
      <point x="347" y="-16"/>
      <point x="430" y="44"/>
      <point x="430" y="134" type="curve" smooth="yes"/>
      <point x="430" y="208"/>
      <point x="375" y="257"/>
      <point x="295" y="264" type="curve"/>
      <point x="364" y="282"/>
      <point x="402" y="331"/>
      <point x="402" y="388" type="curve" smooth="yes"/>
      <point x="402" y="467"/>
      <point x="329" y="516"/>
      <point x="233" y="516" type="curve" smooth="yes"/>
      <point x="190" y="516"/>
      <point x="140" y="506"/>
      <point x="99" y="473" type="curve"/>
      <point x="101" y="511" type="line"/>
      <point x="59" y="511" type="line"/>
      <point x="59" y="336" type="line"/>
      <point x="91" y="336" type="line"/>
      <point x="95" y="405"/>
      <point x="139" y="479"/>
      <point x="221" y="479" type="curve" smooth="yes"/>
      <point x="278" y="479"/>
      <point x="310" y="442"/>
      <point x="310" y="382" type="curve" smooth="yes"/>
      <point x="310" y="319"/>
      <point x="281" y="274"/>
      <point x="206" y="274" type="curve" smooth="yes"/>
      <point x="165" y="274" type="line"/>
      <point x="165" y="237" type="line"/>
      <point x="210" y="237" type="line" smooth="yes"/>
      <point x="276" y="237"/>
      <point x="334" y="205"/>
      <point x="334" y="127" type="curve" smooth="yes"/>
      <point x="334" y="51"/>
      <point x="281" y="19"/>
      <point x="222" y="19" type="curve" smooth="yes"/>
      <point x="178" y="19"/>
      <point x="124" y="30"/>
      <point x="106" y="70" type="curve"/>
      <point x="118" y="82"/>
      <point x="122" y="97"/>
      <point x="122" y="110" type="curve" smooth="yes"/>
      <point x="122" y="127"/>
      <point x="110" y="156"/>
      <point x="75" y="155" type="curve" smooth="yes"/>
      <point x="45" y="155"/>
      <point x="29" y="129"/>
      <point x="29" y="96" type="curve" smooth="yes"/>
      <point x="29" y="42"/>
      <point x="98" y="-16"/>
    </contour>
  </outline>
</glyph>
<glyph name="em-cy" format="2">
  <advance width="738"/>
  <unicode hex="043C"/>
  <anchor x="642" y="0" name="bottomright"/>
  <outline>
    <contour>
      <point x="32" y="0" type="line"/>
      <point x="186" y="0" type="line"/>
      <point x="186" y="41" type="line"/>
      <point x="123" y="39" type="line"/>
      <point x="128" y="55"/>
      <point x="133" y="80"/>
      <point x="135" y="97" type="curve" smooth="yes"/>
      <point x="159" y="290" type="line"/>
      <point x="163" y="321"/>
      <point x="166" y="351"/>
      <point x="170" y="382" type="curve"/>
      <point x="182" y="351"/>
      <point x="195" y="321"/>
      <point x="207" y="290" type="curve"/>
      <point x="326" y="0" type="line"/>
      <point x="366" y="0" type="line"/>
      <point x="519" y="372" type="line"/>
      <point x="558" y="115" type="line" smooth="yes"/>
      <point x="567" y="55"/>
      <point x="546" y="28"/>
      <point x="505" y="30" type="curve"/>
      <point x="505" y="0" type="line"/>
      <point x="707" y="0" type="line"/>
      <point x="707" y="41" type="line"/>
      <point x="642" y="39" type="line"/>
      <point x="644" y="54"/>
      <point x="644" y="77"/>
      <point x="642" y="94" type="curve" smooth="yes"/>
      <point x="596" y="398" type="line" smooth="yes"/>
      <point x="588" y="451"/>
      <point x="609" y="470"/>
      <point x="646" y="470" type="curve"/>
      <point x="646" y="500" type="line"/>
      <point x="528" y="500" type="line"/>
      <point x="399" y="186" type="line"/>
      <point x="389" y="162"/>
      <point x="380" y="139"/>
      <point x="370" y="115" type="curve"/>
      <point x="359" y="140"/>
      <point x="349" y="166"/>
      <point x="338" y="191" type="curve"/>
      <point x="206" y="500" type="line"/>
      <point x="73" y="500" type="line"/>
      <point x="73" y="459" type="line"/>
      <point x="134" y="462" type="line"/>
      <point x="132" y="444"/>
      <point x="129" y="425"/>
      <point x="127" y="407" type="curve"/>
      <point x="90" y="97" type="line" smooth="yes"/>
      <point x="85" y="55"/>
      <point x="74" y="29"/>
      <point x="32" y="30" type="curve"/>
    </contour>
  </outline>
</glyph>
<glyph name="che-cy" format="2">
  <advance width="558"/>
  <unicode hex="0447"/>
  <anchor x="403" y="0" name="bottomright"/>
  <anchor x="279" y="220" name="center"/>
  <anchor x="267" y="500" name="top"/>
  <outline>
    <contour>
      <point x="309" y="0" type="line"/>
      <point x="513" y="0" type="line"/>
      <point x="513" y="41" type="line"/>
      <point x="450" y="38" type="line"/>
      <point x="454" y="61"/>
      <point x="454" y="79"/>
      <point x="454" y="106" type="curve" smooth="yes"/>
      <point x="455" y="348" type="line" smooth="yes"/>
      <point x="456" y="420"/>
      <point x="453" y="470"/>
      <point x="514" y="470" type="curve"/>
      <point x="514" y="500" type="line"/>
      <point x="310" y="500" type="line"/>
      <point x="310" y="459" type="line"/>
      <point x="373" y="462" type="line"/>
      <point x="369" y="439"/>
      <point x="369" y="421"/>
      <point x="369" y="394" type="curve" smooth="yes"/>
      <point x="368" y="258" type="line"/>
      <point x="336" y="250"/>
      <point x="300" y="246"/>
      <point x="273" y="246" type="curve" smooth="yes"/>
      <point x="198" y="246"/>
      <point x="162" y="292"/>
      <point x="162" y="359" type="curve" smooth="yes"/>
      <point x="163" y="444"/>
      <point x="175" y="470"/>
      <point x="221" y="470" type="curve"/>
      <point x="221" y="500" type="line"/>
      <point x="17" y="500" type="line"/>
      <point x="17" y="459" type="line"/>
      <point x="80" y="462" type="line"/>
      <point x="77" y="443"/>
      <point x="76" y="411"/>
      <point x="76" y="385" type="curve" smooth="yes"/>
      <point x="76" y="261"/>
      <point x="129" y="195"/>
      <point x="255" y="195" type="curve" smooth="yes"/>
      <point x="284" y="195"/>
      <point x="329" y="199"/>
      <point x="368" y="209" type="curve"/>
      <point x="368" y="152" type="line" smooth="yes"/>
      <point x="368" y="80"/>
      <point x="370" y="30"/>
      <point x="309" y="30" type="curve"/>
    </contour>
  </outline>
</glyph>
<glyph name="sha-cy" format="2">
  <advance width="830"/>
  <unicode hex="0448"/>
  <outline>
    <contour>
      <point x="44" y="0" type="line"/>
      <point x="784" y="0" type="line"/>
      <point x="784" y="41" type="line"/>
      <point x="721" y="38" type="line"/>
      <point x="725" y="61"/>
      <point x="725" y="79"/>
      <point x="726" y="106" type="curve"/>
      <point x="726" y="348" type="line" smooth="yes"/>
      <point x="727" y="420"/>
      <point x="725" y="470"/>
      <point x="786" y="470" type="curve"/>
      <point x="786" y="500" type="line"/>
      <point x="582" y="500" type="line"/>
      <point x="582" y="459" type="line"/>
      <point x="645" y="462" type="line"/>
      <point x="641" y="439"/>
      <point x="641" y="421"/>
      <point x="641" y="394" type="curve" smooth="yes"/>
      <point x="641" y="152" type="line" smooth="yes"/>
      <point x="639" y="80"/>
      <point x="641" y="41"/>
      <point x="580" y="40" type="curve" smooth="yes"/>
      <point x="458" y="38" type="line"/>
      <point x="461" y="61"/>
      <point x="461" y="79"/>
      <point x="461" y="106" type="curve" smooth="yes"/>
      <point x="461" y="348" type="line" smooth="yes"/>
      <point x="463" y="420"/>
      <point x="461" y="470"/>
      <point x="522" y="470" type="curve"/>
      <point x="522" y="500" type="line"/>
      <point x="318" y="500" type="line"/>
      <point x="318" y="459" type="line"/>
      <point x="381" y="462" type="line"/>
      <point x="377" y="439"/>
      <point x="377" y="421"/>
      <point x="377" y="394" type="curve" smooth="yes"/>
      <point x="377" y="152" type="line" smooth="yes"/>
      <point x="375" y="80"/>
      <point x="377" y="41"/>
      <point x="316" y="40" type="curve" smooth="yes"/>
      <point x="185" y="38" type="line"/>
      <point x="189" y="61"/>
      <point x="189" y="79"/>
      <point x="189" y="106" type="curve" smooth="yes"/>
      <point x="189" y="348" type="line" smooth="yes"/>
      <point x="190" y="420"/>
      <point x="188" y="470"/>
      <point x="250" y="470" type="curve"/>
      <point x="250" y="500" type="line"/>
      <point x="45" y="500" type="line"/>
      <point x="45" y="459" type="line"/>
      <point x="108" y="462" type="line"/>
      <point x="104" y="439"/>
      <point x="104" y="421"/>
      <point x="104" y="394" type="curve" smooth="yes"/>
      <point x="104" y="152" type="line" smooth="yes"/>
      <point x="103" y="80"/>
      <point x="105" y="30"/>
      <point x="44" y="30" type="curve"/>
    </contour>
  </outline>
</glyph>
<glyph name="yeru-cy" format="2">
  <advance width="742"/>
  <unicode hex="044B"/>
  <anchor x="358" y="500" name="top"/>
  <outline>
    <contour>
      <point x="44" y="0" type="line"/>
      <point x="291" y="0" type="line" smooth="yes"/>
      <point x="378" y="0"/>
      <point x="454" y="52"/>
      <point x="454" y="148" type="curve" smooth="yes"/>
      <point x="454" y="228"/>
      <point x="402" y="296"/>
      <point x="241" y="292" type="curve" smooth="yes"/>
      <point x="190" y="290" type="line"/>
      <point x="190" y="382" type="line" smooth="yes"/>
      <point x="190" y="420"/>
      <point x="188" y="470"/>
      <point x="249" y="470" type="curve"/>
      <point x="249" y="500" type="line"/>
      <point x="45" y="500" type="line"/>
      <point x="45" y="459" type="line"/>
      <point x="66" y="460"/>
      <point x="87" y="461"/>
      <point x="108" y="462" type="curve"/>
      <point x="104" y="439"/>
      <point x="104" y="421"/>
      <point x="104" y="394" type="curve" smooth="yes"/>
      <point x="104" y="115" type="line" smooth="yes"/>
      <point x="104" y="63"/>
      <point x="93" y="31"/>
      <point x="44" y="30" type="curve"/>
    </contour>
    <contour>
      <point x="188" y="41" type="curve"/>
      <point x="189" y="53"/>
      <point x="190" y="71"/>
      <point x="190" y="97" type="curve" smooth="yes"/>
      <point x="190" y="252" type="line"/>
      <point x="212" y="253"/>
      <point x="226" y="254"/>
      <point x="254" y="254" type="curve" smooth="yes"/>
      <point x="324" y="254"/>
      <point x="366" y="214"/>
      <point x="366" y="146" type="curve" smooth="yes"/>
      <point x="366" y="69"/>
      <point x="316" y="40"/>
      <point x="254" y="40" type="curve" smooth="yes"/>
      <point x="231" y="40"/>
      <point x="210" y="40"/>
    </contour>
    <contour>
      <point x="492" y="0" type="line"/>
      <point x="696" y="0" type="line"/>
      <point x="696" y="41" type="line"/>
      <point x="675" y="40"/>
      <point x="654" y="39"/>
      <point x="633" y="38" type="curve"/>
      <point x="637" y="61"/>
      <point x="637" y="79"/>
      <point x="637" y="106" type="curve" smooth="yes"/>
      <point x="639" y="348" type="line" smooth="yes"/>
      <point x="639" y="420"/>
      <point x="637" y="470"/>
      <point x="698" y="470" type="curve"/>
      <point x="698" y="500" type="line"/>
      <point x="494" y="500" type="line"/>
      <point x="494" y="459" type="line"/>
      <point x="515" y="460"/>
      <point x="536" y="461"/>
      <point x="557" y="462" type="curve"/>
      <point x="553" y="439"/>
      <point x="553" y="421"/>
      <point x="553" y="394" type="curve" smooth="yes"/>
      <point x="552" y="152" type="line" smooth="yes"/>
      <point x="551" y="80"/>
      <point x="553" y="30"/>
      <point x="492" y="30" type="curve"/>
    </contour>
  </outline>
</glyph>
<glyph name="ereversed-cy" format="2">
  <advance width="532"/>
  <unicode hex="044D"/>
  <anchor x="249" y="500" name="top"/>
  <outline>
    <contour>
      <point x="242" y="-16" type="curve" smooth="yes"/>
      <point x="402" y="-16"/>
      <point x="491" y="121"/>
      <point x="491" y="259" type="curve" smooth="yes"/>
      <point x="491" y="421"/>
      <point x="379" y="516"/>
      <point x="247" y="516" type="curve" smooth="yes"/>
      <point x="192" y="516"/>
      <point x="153" y="500"/>
      <point x="105" y="470" type="curve"/>
      <point x="107" y="511" type="line"/>
      <point x="65" y="511" type="line"/>
      <point x="65" y="336" type="line"/>
      <point x="97" y="336" type="line"/>
      <point x="102" y="410"/>
      <point x="150" y="478"/>
      <point x="238" y="478" type="curve" smooth="yes"/>
      <point x="331" y="478"/>
      <point x="389" y="389"/>
      <point x="389" y="234" type="curve" smooth="yes"/>
      <point x="389" y="96"/>
      <point x="323" y="21"/>
      <point x="240" y="21" type="curve" smooth="yes"/>
      <point x="210" y="21"/>
      <point x="145" y="28"/>
      <point x="123" y="75" type="curve"/>
      <point x="135" y="87"/>
      <point x="138" y="102"/>
      <point x="138" y="115" type="curve" smooth="yes"/>
      <point x="138" y="132"/>
      <point x="126" y="161"/>
      <point x="92" y="160" type="curve" smooth="yes"/>
      <point x="62" y="160"/>
      <point x="45" y="136"/>
      <point x="45" y="107" type="curve" smooth="yes"/>
      <point x="45" y="42"/>
      <point x="117" y="-16"/>
    </contour>
    <contour>
      <point x="161" y="233" type="line"/>
      <point x="405" y="237" type="line"/>
      <point x="405" y="276" type="line"/>
      <point x="161" y="276" type="line"/>
    </contour>
  </outline>
</glyph>
<glyph name="dje-cy" format="2">
  <advance width="577"/>
  <unicode hex="0452"/>
  <outline>
    <contour>
      <point x="336" y="-229" type="curve" smooth="yes"/>
      <point x="480" y="-229"/>
      <point x="512" y="-128"/>
      <point x="512" y="42" type="curve" smooth="yes"/>
      <point x="512" y="226" type="line" smooth="yes"/>
      <point x="512" y="418"/>
      <point x="468" y="486"/>
      <point x="346" y="486" type="curve" smooth="yes"/>
      <point x="289" y="486"/>
      <point x="226" y="457"/>
      <point x="182" y="420" type="curve"/>
      <point x="182" y="584" type="line"/>
      <point x="386" y="586" type="line"/>
      <point x="386" y="625" type="line"/>
      <point x="182" y="625" type="line"/>
      <point x="182" y="755" type="line"/>
      <point x="153" y="755" type="line"/>
      <point x="138" y="741"/>
      <point x="116" y="728"/>
      <point x="28" y="728" type="curve"/>
      <point x="28" y="686" type="line"/>
      <point x="52" y="687"/>
      <point x="75" y="689"/>
      <point x="99" y="690" type="curve"/>
      <point x="96" y="663"/>
      <point x="96" y="646"/>
      <point x="96" y="625" type="curve"/>
      <point x="23" y="625" type="line"/>
      <point x="23" y="582" type="line"/>
      <point x="96" y="583" type="line"/>
      <point x="96" y="152" type="line" smooth="yes"/>
      <point x="96" y="80"/>
      <point x="97" y="30"/>
      <point x="36" y="30" type="curve"/>
      <point x="36" y="0" type="line"/>
      <point x="240" y="0" type="line"/>
      <point x="240" y="41" type="line"/>
      <point x="177" y="38" type="line"/>
      <point x="181" y="61"/>
      <point x="182" y="79"/>
      <point x="182" y="106" type="curve" smooth="yes"/>
      <point x="182" y="371" type="line"/>
      <point x="211" y="407"/>
      <point x="263" y="432"/>
      <point x="312" y="433" type="curve" smooth="yes"/>
      <point x="394" y="435"/>
      <point x="431" y="366"/>
      <point x="431" y="227" type="curve" smooth="yes"/>
      <point x="431" y="40" type="line" smooth="yes"/>
      <point x="429" y="-105"/>
      <point x="414" y="-192"/>
      <point x="318" y="-192" type="curve" smooth="yes"/>
      <point x="302" y="-192"/>
      <point x="269" y="-187"/>
      <point x="250" y="-182" type="curve"/>
      <point x="241" y="-213" type="line"/>
      <point x="278" y="-224"/>
      <point x="307" y="-229"/>
    </contour>
  </outline>
</glyph>
<glyph name="Yat-cy" format="2">
  <advance width="697"/>
  <unicode hex="0462"/>
  <outline>
    <contour>
      <point x="358" y="706" type="curve"/>
      <point x="358" y="739" type="line"/>
      <point x="133" y="739" type="line"/>
      <point x="133" y="695" type="line"/>
      <point x="157" y="696"/>
      <point x="181" y="698"/>
      <point x="205" y="699" type="curve"/>
      <point x="203" y="679"/>
      <point x="202" y="654"/>
      <point x="202" y="627" type="curve" smooth="yes"/>
      <point x="202" y="156" type="line" smooth="yes"/>
      <point x="202" y="84"/>
      <point x="207" y="35"/>
      <point x="133" y="33" type="curve"/>
      <point x="133" y="0" type="line"/>
      <point x="425" y="0" type="line" smooth="yes"/>
      <point x="560" y="0"/>
      <point x="661" y="73"/>
      <point x="661" y="213" type="curve" smooth="yes"/>
      <point x="661" y="331"/>
      <point x="590" y="416"/>
      <point x="370" y="410" type="curve" smooth="yes"/>
      <point x="289" y="407" type="line"/>
      <point x="289" y="583" type="line" smooth="yes"/>
      <point x="289" y="654"/>
      <point x="283" y="703"/>
    </contour>
    <contour>
      <point x="289" y="118" type="curve" smooth="yes"/>
      <point x="289" y="369" type="line"/>
      <point x="321" y="371"/>
      <point x="352" y="372"/>
      <point x="392" y="372" type="curve" smooth="yes"/>
      <point x="483" y="372"/>
      <point x="564" y="336"/>
      <point x="564" y="209" type="curve" smooth="yes"/>
      <point x="564" y="90"/>
      <point x="495" y="38"/>
      <point x="392" y="38" type="curve" smooth="yes"/>
      <point x="379" y="38"/>
      <point x="317" y="37"/>
      <point x="286" y="40" type="curve"/>
      <point x="288" y="57"/>
      <point x="289" y="82"/>
    </contour>
    <contour>
      <point x="503" y="451" type="curve"/>
      <point x="540" y="451" type="line"/>
      <point x="534" y="612" type="line"/>
      <point x="6" y="612" type="line"/>
      <point x="0" y="451" type="line"/>
      <point x="37" y="451" type="line"/>
      <point x="37" y="549"/>
      <point x="68" y="574"/>
      <point x="152" y="574" type="curve"/>
      <point x="372" y="576" type="line"/>
      <point x="475" y="577"/>
      <point x="501" y="549"/>
    </contour>
  </outline>
</glyph>
<glyph name="Semisoftsign-cy" format="2">
  <advance width="615"/>
  <unicode hex="048C"/>
  <outline>
    <contour>
      <point x="26" y="517" type="line"/>
      <point x="384" y="521" type="line"/>
      <point x="384" y="561" type="line"/>
      <point x="26" y="561" type="line"/>
    </contour>
    <component base="Softsign-cy"/>
  </outline>
</glyph>
<glyph name="Ertick-cy" format="2">
  <advance width="606"/>
  <unicode hex="048E"/>
  <outline>
    <contour>
      <point x="414" y="184" type="line"/>
      <point x="446" y="204" type="line"/>
      <point x="318" y="426" type="line"/>
      <point x="286" y="406" type="line"/>
    </contour>
    <component base="P"/>
  </outline>
</glyph>
<glyph name="gheupturn-cy" format="2">
  <advance width="438"/>
  <unicode hex="0491"/>
  <outline>
    <contour>
      <point x="44" y="0" type="line"/>
      <point x="248" y="0" type="line"/>
      <point x="248" y="41" type="line"/>
      <point x="185" y="38" type="line"/>
      <point x="189" y="61"/>
      <point x="189" y="79"/>
      <point x="189" y="106" type="curve" smooth="yes"/>
      <point x="190" y="348" type="line" smooth="yes"/>
      <point x="190" y="420"/>
      <point x="192" y="460"/>
      <point x="251" y="460" type="curve" smooth="yes"/>
      <point x="421" y="460" type="line"/>
      <point x="425" y="611" type="line"/>
      <point x="387" y="611" type="line"/>
      <point x="385" y="527"/>
      <point x="359" y="500"/>
      <point x="251" y="500" type="curve" smooth="yes"/>
      <point x="45" y="500" type="line"/>
      <point x="45" y="459" type="line"/>
      <point x="66" y="460"/>
      <point x="87" y="461"/>
      <point x="108" y="462" type="curve"/>
      <point x="104" y="439"/>
      <point x="104" y="421"/>
      <point x="104" y="394" type="curve" smooth="yes"/>
      <point x="104" y="152" type="line" smooth="yes"/>
      <point x="103" y="80"/>
      <point x="105" y="30"/>
      <point x="44" y="30" type="curve"/>
    </contour>
  </outline>
</glyph>
<glyph name="ghestroke-cy" format="2">
  <advance width="438"/>
  <unicode hex="0493"/>
  <outline>
    <contour>
      <point x="20" y="213" type="line"/>
      <point x="294" y="217" type="line"/>
      <point x="294" y="256" type="line"/>
      <point x="20" y="256" type="line"/>
    </contour>
    <component base="ge-cy"/>
  </outline>
</glyph>
<glyph name="Ghemiddlehook-cy" format="2">
  <advance width="629"/>
  <unicode hex="0494"/>
  <guideline x="410" y="-271" angle="0"/>
  <outline>
    <contour>
      <point x="348" y="-223" type="curve" smooth="yes"/>
      <point x="500" y="-223"/>
      <point x="585" y="-63"/>
      <point x="585" y="107" type="curve" smooth="yes"/>
      <point x="585" y="301"/>
      <point x="507" y="407"/>
      <point x="340" y="407" type="curve" smooth="yes"/>
      <point x="289" y="407"/>
      <point x="220" y="392"/>
      <point x="181" y="369" type="curve"/>
      <point x="181" y="322" type="line"/>
      <point x="211" y="343"/>
      <point x="258" y="358"/>
      <point x="316" y="358" type="curve" smooth="yes"/>
      <point x="440" y="358"/>
      <point x="490" y="268"/>
      <point x="487" y="99" type="curve" smooth="yes"/>
      <point x="484" y="-86"/>
      <point x="446" y="-188"/>
      <point x="331" y="-188" type="curve" smooth="yes"/>
      <point x="317" y="-188"/>
      <point x="300" y="-186"/>
      <point x="284" y="-183" type="curve"/>
      <point x="279" y="-213" type="line"/>
      <point x="303" y="-220"/>
      <point x="326" y="-223"/>
    </contour>
    <component base="Ge-cy"/>
  </outline>
</glyph>
<glyph name="zhedescender-cy" format="2">
  <advance width="818"/>
  <unicode hex="0497"/>
  <outline>
    <contour>
      <point x="777" y="-178" type="curve"/>
      <point x="818" y="-178" type="line"/>
      <point x="818" y="45" type="line"/>
      <point x="751" y="38"/>
      <point x="716" y="41"/>
      <point x="654" y="126" type="curve" smooth="yes"/>
      <point x="632" y="156"/>
      <point x="607" y="191"/>
      <point x="582" y="221" type="curve" smooth="yes"/>
      <point x="563" y="245"/>
      <point x="543" y="265"/>
      <point x="526" y="278" type="curve"/>
      <point x="597" y="365" type="line"/>
      <point x="632" y="403"/>
      <point x="689" y="463"/>
      <point x="757" y="470" type="curve"/>
      <point x="757" y="500" type="line"/>
      <point x="575" y="500" type="line"/>
      <point x="575" y="460" type="line"/>
      <point x="643" y="463" type="line"/>
      <point x="624" y="451"/>
      <point x="606" y="433"/>
      <point x="584" y="410" type="curve"/>
      <point x="477" y="282" type="line"/>
      <point x="430" y="282" type="line"/>
      <point x="431" y="348" type="line" smooth="yes"/>
      <point x="431" y="420"/>
      <point x="429" y="470"/>
      <point x="490" y="470" type="curve"/>
      <point x="490" y="500" type="line"/>
      <point x="286" y="500" type="line"/>
      <point x="286" y="459" type="line"/>
      <point x="349" y="462" type="line"/>
      <point x="345" y="439"/>
      <point x="345" y="421"/>
      <point x="345" y="394" type="curve" smooth="yes"/>
      <point x="345" y="282" type="line"/>
      <point x="299" y="282" type="line"/>
      <point x="191" y="410" type="line"/>
      <point x="169" y="433"/>
      <point x="151" y="451"/>
      <point x="132" y="463" type="curve"/>
      <point x="201" y="460" type="line"/>
      <point x="201" y="500" type="line"/>
      <point x="19" y="500" type="line"/>
      <point x="19" y="470" type="line"/>
      <point x="86" y="463"/>
      <point x="144" y="403"/>
      <point x="179" y="365" type="curve"/>
      <point x="250" y="278" type="line"/>
      <point x="211" y="249"/>
      <point x="160" y="180"/>
      <point x="121" y="126" type="curve" smooth="yes"/>
      <point x="77" y="65"/>
      <point x="42" y="30"/>
      <point x="7" y="30" type="curve"/>
      <point x="7" y="0" type="line"/>
      <point x="95" y="0" type="line" smooth="yes"/>
      <point x="127" y="0"/>
      <point x="159" y="40"/>
      <point x="201" y="95" type="curve" smooth="yes"/>
      <point x="233" y="139"/>
      <point x="273" y="200"/>
      <point x="311" y="245" type="curve"/>
      <point x="344" y="244" type="line"/>
      <point x="344" y="152" type="line" smooth="yes"/>
      <point x="343" y="80"/>
      <point x="345" y="30"/>
      <point x="284" y="30" type="curve"/>
      <point x="284" y="0" type="line"/>
      <point x="488" y="0" type="line"/>
      <point x="488" y="41" type="line"/>
      <point x="425" y="38" type="line"/>
      <point x="429" y="61"/>
      <point x="429" y="79"/>
      <point x="429" y="106" type="curve" smooth="yes"/>
      <point x="430" y="244" type="line"/>
      <point x="464" y="245" type="line"/>
      <point x="502" y="200"/>
      <point x="542" y="139"/>
      <point x="575" y="95" type="curve" smooth="yes"/>
      <point x="636" y="14"/>
      <point x="651" y="0"/>
      <point x="697" y="0" type="curve" smooth="yes"/>
      <point x="763" y="0"/>
      <point x="777" y="-78"/>
    </contour>
  </outline>
</glyph>
<glyph name="Zedescender-cy" format="2">
  <advance width="613"/>
  <unicode hex="0498"/>
  <outline>
    <contour>
      <point x="280" y="-186" type="line" smooth="yes"/>
      <point x="344" y="-186" type="line"/>
      <point x="333" y="0" type="line"/>
      <point x="280" y="-1" type="line"/>
    </contour>
    <component base="Ze-cy"/>
  </outline>
</glyph>
<glyph name="zedescender-cy" format="2">
  <advance width="459"/>
  <unicode hex="0499"/>
  <outline>
    <contour>
      <point x="210" y="-166" type="line" smooth="yes"/>
      <point x="264" y="-166" type="line"/>
      <point x="253" y="0" type="line"/>
      <point x="210" y="-1" type="line"/>
    </contour>
    <component base="ze-cy"/>
  </outline>
</glyph>
<glyph name="kadescender-cy" format="2">
  <advance width="574"/>
  <unicode hex="049B"/>
  <outline>
    <contour>
      <point x="536" y="-178" type="curve"/>
      <point x="574" y="-178" type="line"/>
      <point x="574" y="42" type="line"/>
      <point x="517" y="38"/>
      <point x="501" y="36"/>
      <point x="476" y="59" type="curve"/>
      <point x="446" y="88"/>
      <point x="417" y="128"/>
      <point x="338" y="229" type="curve" smooth="yes"/>
      <point x="319" y="252"/>
      <point x="302" y="271"/>
      <point x="276" y="283" type="curve"/>
      <point x="354" y="365" type="line" smooth="yes"/>
      <point x="390" y="402"/>
      <point x="446" y="463"/>
      <point x="514" y="470" type="curve"/>
      <point x="514" y="500" type="line"/>
      <point x="332" y="500" type="line"/>
      <point x="332" y="460" type="line"/>
      <point x="400" y="463" type="line"/>
      <point x="381" y="451"/>
      <point x="363" y="433"/>
      <point x="341" y="410" type="curve" smooth="yes"/>
      <point x="219" y="282" type="line"/>
      <point x="180" y="282" type="line"/>
      <point x="181" y="348" type="line" smooth="yes"/>
      <point x="181" y="420"/>
      <point x="179" y="470"/>
      <point x="240" y="470" type="curve"/>
      <point x="240" y="500" type="line"/>
      <point x="36" y="500" type="line"/>
      <point x="36" y="459" type="line"/>
      <point x="57" y="460"/>
      <point x="78" y="461"/>
      <point x="99" y="462" type="curve"/>
      <point x="95" y="439"/>
      <point x="95" y="421"/>
      <point x="95" y="394" type="curve" smooth="yes"/>
      <point x="94" y="152" type="line" smooth="yes"/>
      <point x="93" y="80"/>
      <point x="95" y="30"/>
      <point x="34" y="30" type="curve"/>
      <point x="34" y="0" type="line"/>
      <point x="238" y="0" type="line"/>
      <point x="238" y="41" type="line"/>
      <point x="217" y="40"/>
      <point x="196" y="39"/>
      <point x="175" y="38" type="curve"/>
      <point x="179" y="61"/>
      <point x="179" y="79"/>
      <point x="179" y="106" type="curve" smooth="yes"/>
      <point x="180" y="243" type="line"/>
      <point x="220" y="245" type="line"/>
      <point x="246" y="220"/>
      <point x="282" y="163"/>
      <point x="333" y="94" type="curve" smooth="yes"/>
      <point x="377" y="34"/>
      <point x="406" y="0"/>
      <point x="444" y="0" type="curve" smooth="yes"/>
      <point x="525" y="0"/>
      <point x="532" y="-70"/>
    </contour>
  </outline>
</glyph>
<glyph name="Kaverticalstroke-cy" format="2">
  <advance width="683"/>
  <unicode hex="049C"/>
  <outline>
    <contour>
      <point x="55" y="0" type="line"/>
      <point x="280" y="0" type="line"/>
      <point x="280" y="44" type="line"/>
      <point x="256" y="43"/>
      <point x="232" y="41"/>
      <point x="208" y="40" type="curve"/>
      <point x="210" y="57"/>
      <point x="211" y="83"/>
      <point x="211" y="119" type="curve" smooth="yes"/>
      <point x="211" y="340" type="line"/>
      <point x="290" y="341" type="line"/>
      <point x="314" y="326"/>
      <point x="340" y="293"/>
      <point x="365" y="260" type="curve" smooth="yes"/>
      <point x="485" y="98" type="line" smooth="yes"/>
      <point x="523" y="46"/>
      <point x="566" y="0"/>
      <point x="586" y="0" type="curve" smooth="yes"/>
      <point x="708" y="0" type="line"/>
      <point x="708" y="33" type="line"/>
      <point x="665" y="33"/>
      <point x="637" y="41"/>
      <point x="561" y="142" type="curve" smooth="yes"/>
      <point x="449" y="291" type="line" smooth="yes"/>
      <point x="425" y="322"/>
      <point x="404" y="353"/>
      <point x="366" y="376" type="curve"/>
      <point x="464" y="532" type="line" smooth="yes"/>
      <point x="532" y="641"/>
      <point x="582" y="660"/>
      <point x="666" y="667" type="curve"/>
      <point x="666" y="700" type="line"/>
      <point x="451" y="700" type="line"/>
      <point x="451" y="659" type="line"/>
      <point x="471" y="660"/>
      <point x="492" y="660"/>
      <point x="512" y="661" type="curve"/>
      <point x="485" y="639"/>
      <point x="458" y="603"/>
      <point x="441" y="577" type="curve" smooth="yes"/>
      <point x="316" y="380" type="line"/>
      <point x="211" y="380" type="line"/>
      <point x="211" y="544" type="line" smooth="yes"/>
      <point x="211" y="615"/>
      <point x="205" y="664"/>
      <point x="280" y="667" type="curve"/>
      <point x="280" y="700" type="line"/>
      <point x="55" y="700" type="line"/>
      <point x="55" y="656" type="line"/>
      <point x="79" y="657"/>
      <point x="103" y="659"/>
      <point x="127" y="660" type="curve"/>
      <point x="125" y="640"/>
      <point x="124" y="615"/>
      <point x="124" y="588" type="curve" smooth="yes"/>
      <point x="124" y="156" type="line" smooth="yes"/>
      <point x="124" y="85"/>
      <point x="130" y="36"/>
      <point x="55" y="33" type="curve"/>
    </contour>
    <component base="__verticalbar-cy.case" xOffset="209" yOffset="50"/>
  </outline>
</glyph>
<glyph name="kastroke-cy" format="2">
  <advance width="540"/>
  <unicode hex="049F"/>
  <outline>
    <contour>
      <point x="26" y="582" type="line"/>
      <point x="339" y="586" type="line"/>
      <point x="339" y="625" type="line"/>
      <point x="26" y="625" type="line"/>
    </contour>
    <component base="k" xOffset="3"/>
  </outline>
</glyph>
<glyph name="kabashkir-cy" format="2">
  <advance width="632"/>
  <unicode hex="04A1"/>
  <outline>
    <contour>
      <point x="129" y="0" type="line"/>
      <point x="333" y="0" type="line"/>
      <point x="333" y="41" type="line"/>
      <point x="270" y="38" type="line"/>
      <point x="275" y="243" type="line"/>
      <point x="315" y="245" type="line"/>
      <point x="341" y="220"/>
      <point x="376" y="166"/>
      <point x="428" y="94" type="curve" smooth="yes"/>
      <point x="465" y="46"/>
      <point x="497" y="0"/>
      <point x="534" y="0" type="curve" smooth="yes"/>
      <point x="625" y="0" type="line"/>
      <point x="625" y="30" type="line"/>
      <point x="579" y="30"/>
      <point x="516" y="122"/>
      <point x="504" y="138" type="curve" smooth="yes"/>
      <point x="433" y="229" type="line" smooth="yes"/>
      <point x="414" y="252"/>
      <point x="397" y="271"/>
      <point x="371" y="283" type="curve"/>
      <point x="449" y="365" type="line" smooth="yes"/>
      <point x="485" y="402"/>
      <point x="541" y="463"/>
      <point x="609" y="470" type="curve"/>
      <point x="609" y="500" type="line"/>
      <point x="427" y="500" type="line"/>
      <point x="427" y="460" type="line"/>
      <point x="495" y="463" type="line"/>
      <point x="476" y="451"/>
      <point x="458" y="433"/>
      <point x="436" y="410" type="curve" smooth="yes"/>
      <point x="314" y="282" type="line"/>
      <point x="275" y="282" type="line"/>
      <point x="276" y="382" type="line" smooth="yes"/>
      <point x="276" y="420"/>
      <point x="274" y="470"/>
      <point x="335" y="470" type="curve"/>
      <point x="335" y="500" type="line"/>
      <point x="26" y="500" type="line"/>
      <point x="22" y="349" type="line"/>
      <point x="60" y="349" type="line"/>
      <point x="60" y="433"/>
      <point x="83" y="457"/>
      <point x="137" y="458" type="curve" smooth="yes"/>
      <point x="194" y="458" type="line"/>
      <point x="190" y="436"/>
      <point x="190" y="421"/>
      <point x="190" y="394" type="curve" smooth="yes"/>
      <point x="189" y="152" type="line" smooth="yes"/>
      <point x="189" y="80"/>
      <point x="190" y="30"/>
      <point x="129" y="30" type="curve"/>
    </contour>
  </outline>
</glyph>
<glyph name="Pemiddlehook-cy" format="2">
  <advance width="1021"/>
  <unicode hex="04A6"/>
  <outline>
    <contour>
      <point x="705" y="-213" type="line"/>
      <point x="900" y="-269"/>
      <point x="1011" y="-87"/>
      <point x="1011" y="107" type="curve" smooth="yes"/>
      <point x="1011" y="301"/>
      <point x="933" y="407"/>
      <point x="766" y="407" type="curve" smooth="yes"/>
      <point x="715" y="407"/>
      <point x="646" y="392"/>
      <point x="607" y="369" type="curve"/>
      <point x="607" y="322" type="line"/>
      <point x="637" y="343"/>
      <point x="684" y="358"/>
      <point x="742" y="358" type="curve" smooth="yes"/>
      <point x="866" y="358"/>
      <point x="916" y="268"/>
      <point x="913" y="99" type="curve" smooth="yes"/>
      <point x="910" y="-86"/>
      <point x="872" y="-188"/>
      <point x="757" y="-188" type="curve" smooth="yes"/>
      <point x="743" y="-188"/>
      <point x="726" y="-186"/>
      <point x="710" y="-183" type="curve"/>
    </contour>
    <component base="Pe-cy"/>
  </outline>
</glyph>
<glyph name="haabkhasian-cy" format="2">
  <advance width="659"/>
  <unicode hex="04A9"/>
  <outline>
    <contour>
      <point x="318" y="-17" type="curve" smooth="yes"/>
      <point x="355" y="-17"/>
      <point x="392" y="-10"/>
      <point x="425" y="3" type="curve"/>
      <point x="459" y="-10"/>
      <point x="494" y="-17"/>
      <point x="529" y="-17" type="curve" smooth="yes"/>
      <point x="570" y="-17"/>
      <point x="606" y="-5"/>
      <point x="629" y="9" type="curve"/>
      <point x="612" y="43" type="line"/>
      <point x="568" y="18"/>
      <point x="527" y="17"/>
      <point x="478" y="30" type="curve"/>
      <point x="558" y="83"/>
      <point x="614" y="164"/>
      <point x="614" y="245" type="curve" smooth="yes"/>
      <point x="614" y="351"/>
      <point x="535" y="415"/>
      <point x="441" y="415" type="curve" smooth="yes"/>
      <point x="335" y="415"/>
      <point x="256" y="352"/>
      <point x="256" y="233" type="curve" smooth="yes"/>
      <point x="256" y="153"/>
      <point x="303" y="78"/>
      <point x="379" y="28" type="curve"/>
      <point x="367" y="25"/>
      <point x="353" y="24"/>
      <point x="340" y="24" type="curve" smooth="yes"/>
      <point x="216" y="24"/>
      <point x="139" y="133"/>
      <point x="139" y="257" type="curve" smooth="yes"/>
      <point x="139" y="376"/>
      <point x="211" y="475"/>
      <point x="322" y="475" type="curve" smooth="yes"/>
      <point x="363" y="475"/>
      <point x="402" y="468"/>
      <point x="439" y="455" type="curve"/>
      <point x="452" y="491" type="line"/>
      <point x="407" y="508"/>
      <point x="365" y="516"/>
      <point x="312" y="516" type="curve" smooth="yes"/>
      <point x="165" y="516"/>
      <point x="41" y="422"/>
      <point x="41" y="255" type="curve" smooth="yes"/>
      <point x="41" y="90"/>
      <point x="148" y="-17"/>
    </contour>
    <contour>
      <point x="433" y="51" type="curve"/>
      <point x="383" y="85"/>
      <point x="352" y="146"/>
      <point x="352" y="233" type="curve"/>
      <point x="352" y="320"/>
      <point x="378" y="376"/>
      <point x="434" y="376" type="curve" smooth="yes"/>
      <point x="491" y="376"/>
      <point x="516" y="320"/>
      <point x="516" y="236" type="curve" smooth="yes"/>
      <point x="516" y="155"/>
      <point x="486" y="87"/>
    </contour>
  </outline>
</glyph>
<glyph name="Tedescender-cy" format="2">
  <advance width="640"/>
  <unicode hex="04AC"/>
  <outline>
    <contour>
      <point x="611" y="700" type="line"/>
      <point x="28" y="700" type="line"/>
      <point x="22" y="489" type="line"/>
      <point x="59" y="489" type="line"/>
      <point x="59" y="607"/>
      <point x="90" y="662"/>
      <point x="174" y="662" type="curve" smooth="yes"/>
      <point x="277" y="663" type="line"/>
      <point x="276" y="156" type="line" smooth="yes"/>
      <point x="276" y="88"/>
      <point x="283" y="36"/>
      <point x="208" y="33" type="curve"/>
      <point x="208" y="0" type="line"/>
      <point x="333" y="0" type="line" smooth="yes"/>
      <point x="399" y="0"/>
      <point x="413" y="-78"/>
      <point x="413" y="-178" type="curve"/>
      <point x="454" y="-178" type="line"/>
      <point x="454" y="49" type="line"/>
      <point x="360" y="43" type="line"/>
      <point x="362" y="60"/>
      <point x="363" y="85"/>
      <point x="363" y="119" type="curve" smooth="yes"/>
      <point x="364" y="664" type="line"/>
      <point x="449" y="664" type="line" smooth="yes"/>
      <point x="552" y="665"/>
      <point x="577" y="607"/>
      <point x="579" y="489" type="curve"/>
      <point x="617" y="489" type="line"/>
    </contour>
  </outline>
</glyph>
<glyph name="tedescender-cy" format="2">
  <advance width="495"/>
  <unicode hex="04AD"/>
  <outline>
    <contour>
      <point x="363" y="-178" type="curve"/>
      <point x="404" y="-178" type="line"/>
      <point x="404" y="45" type="line"/>
      <point x="287" y="44" type="line"/>
      <point x="290" y="64"/>
      <point x="290" y="81"/>
      <point x="290" y="106" type="curve" smooth="yes"/>
      <point x="290" y="458" type="line"/>
      <point x="352" y="458" type="line" smooth="yes"/>
      <point x="415" y="458"/>
      <point x="433" y="433"/>
      <point x="435" y="349" type="curve"/>
      <point x="473" y="349" type="line"/>
      <point x="468" y="500" type="line"/>
      <point x="26" y="500" type="line"/>
      <point x="22" y="349" type="line"/>
      <point x="60" y="349" type="line"/>
      <point x="60" y="433"/>
      <point x="83" y="458"/>
      <point x="137" y="458" type="curve" smooth="yes"/>
      <point x="208" y="458" type="line"/>
      <point x="204" y="435"/>
      <point x="204" y="421"/>
      <point x="204" y="394" type="curve" smooth="yes"/>
      <point x="204" y="152" type="line" smooth="yes"/>
      <point x="203" y="80"/>
      <point x="205" y="30"/>
      <point x="144" y="30" type="curve"/>
      <point x="144" y="0" type="line"/>
      <point x="283" y="0" type="line" smooth="yes"/>
      <point x="349" y="0"/>
      <point x="363" y="-78"/>
    </contour>
  </outline>
</glyph>
<glyph name="ustraight-cy" format="2">
  <advance width="505"/>
  <unicode hex="04AF"/>
  <anchor x="257" y="0" name="center"/>
  <outline>
    <contour>
      <point x="152" y="-255" type="line"/>
      <point x="356" y="-255" type="line"/>
      <point x="356" y="-214" type="line"/>
      <point x="294" y="-217" type="line"/>
      <point x="297" y="-194"/>
      <point x="297" y="-176"/>
      <point x="297" y="-149" type="curve" smooth="yes"/>
      <point x="297" y="56" type="line"/>
      <point x="405" y="335" type="line" smooth="yes"/>
      <point x="440" y="425"/>
      <point x="458" y="470"/>
      <point x="502" y="470" type="curve"/>
      <point x="502" y="500" type="line"/>
      <point x="344" y="500" type="line"/>
      <point x="344" y="459" type="line"/>
      <point x="408" y="462" type="line"/>
      <point x="402" y="450"/>
      <point x="389" y="425"/>
      <point x="378" y="393" type="curve" smooth="yes"/>
      <point x="298" y="174" type="line"/>
      <point x="274" y="102" type="line"/>
      <point x="273" y="102" type="line"/>
      <point x="263" y="129"/>
      <point x="254" y="156"/>
      <point x="244" y="183" type="curve"/>
      <point x="167" y="359" type="line" smooth="yes"/>
      <point x="142" y="417"/>
      <point x="129" y="470"/>
      <point x="190" y="470" type="curve"/>
      <point x="190" y="500" type="line"/>
      <point x="6" y="500" type="line"/>
      <point x="6" y="459" type="line"/>
      <point x="49" y="462" type="line"/>
      <point x="50" y="439"/>
      <point x="58" y="399"/>
      <point x="91" y="323" type="curve" smooth="yes"/>
      <point x="212" y="48" type="line"/>
      <point x="211" y="-103" type="line" smooth="yes"/>
      <point x="211" y="-175"/>
      <point x="213" y="-225"/>
      <point x="152" y="-225" type="curve"/>
    </contour>
  </outline>
</glyph>
<glyph name="Cheabkhasian-cy" format="2">
  <advance width="834"/>
  <unicode hex="04BC"/>
  <outline>
    <contour>
      <point x="495" y="-15" type="curve" smooth="yes"/>
      <point x="580" y="-15"/>
      <point x="698" y="11"/>
      <point x="787" y="130" type="curve"/>
      <point x="759" y="155" type="line"/>
      <point x="703" y="80"/>
      <point x="611" y="46"/>
      <point x="520" y="46" type="curve" smooth="yes"/>
      <point x="358" y="46"/>
      <point x="254" y="156"/>
      <point x="254" y="347" type="curve" smooth="yes"/>
      <point x="254" y="595"/>
      <point x="390" y="675"/>
      <point x="488" y="675" type="curve" smooth="yes"/>
      <point x="625" y="675"/>
      <point x="713" y="533"/>
      <point x="696" y="351" type="curve"/>
      <point x="789" y="352" type="line"/>
      <point x="790" y="372"/>
      <point x="790" y="378"/>
      <point x="790" y="388" type="curve" smooth="yes"/>
      <point x="790" y="546"/>
      <point x="715" y="716"/>
      <point x="475" y="716" type="curve" smooth="yes"/>
      <point x="285" y="716"/>
      <point x="154" y="543"/>
      <point x="154" y="332" type="curve" smooth="yes"/>
      <point x="154" y="162"/>
      <point x="257" y="-15"/>
    </contour>
    <contour>
      <point x="208" y="351" type="curve" smooth="yes"/>
      <point x="709" y="351" type="line"/>
      <point x="709" y="395" type="line"/>
      <point x="204" y="391" type="line" smooth="yes"/>
      <point x="93" y="390"/>
      <point x="46" y="426"/>
      <point x="46" y="457" type="curve" smooth="yes"/>
      <point x="46" y="463"/>
      <point x="47" y="468"/>
      <point x="52" y="474" type="curve"/>
      <point x="59" y="467"/>
      <point x="69" y="464"/>
      <point x="74" y="464" type="curve" smooth="yes"/>
      <point x="94" y="464"/>
      <point x="122" y="479"/>
      <point x="122" y="512" type="curve" smooth="yes"/>
      <point x="122" y="539"/>
      <point x="104" y="561"/>
      <point x="68" y="561" type="curve" smooth="yes"/>
      <point x="25" y="561"/>
      <point x="-5" y="518"/>
      <point x="-3" y="474" type="curve" smooth="yes"/>
      <point x="1" y="399"/>
      <point x="68" y="351"/>
    </contour>
  </outline>
</glyph>
<glyph name="chedescenderabkhasian-cy" format="2">
  <advance width="619"/>
  <unicode hex="04BF"/>
  <outline>
    <contour>
      <point x="338" y="-166" type="line" smooth="yes"/>
      <point x="392" y="-166" type="line"/>
      <point x="381" y="0" type="line"/>
      <point x="338" y="-1" type="line"/>
    </contour>
    <component base="cheabkhasian-cy"/>
  </outline>
</glyph>
<glyph name="Enhook-cy" format="2">
  <advance width="780"/>
  <unicode hex="04C7"/>
  <outline>
    <contour>
      <point x="487" y="-229" type="curve" smooth="yes"/>
      <point x="610" y="-229"/>
      <point x="656" y="-131"/>
      <point x="656" y="14" type="curve" smooth="yes"/>
      <point x="656" y="544" type="line" smooth="yes"/>
      <point x="656" y="615"/>
      <point x="650" y="664"/>
      <point x="725" y="667" type="curve"/>
      <point x="725" y="700" type="line"/>
      <point x="500" y="700" type="line"/>
      <point x="500" y="656" type="line"/>
      <point x="524" y="657"/>
      <point x="548" y="659"/>
      <point x="572" y="660" type="curve"/>
      <point x="570" y="640"/>
      <point x="569" y="615"/>
      <point x="569" y="588" type="curve" smooth="yes"/>
      <point x="569" y="378" type="line"/>
      <point x="211" y="378" type="line"/>
      <point x="211" y="544" type="line" smooth="yes"/>
      <point x="211" y="615"/>
      <point x="205" y="664"/>
      <point x="280" y="667" type="curve"/>
      <point x="280" y="700" type="line"/>
      <point x="55" y="700" type="line"/>
      <point x="55" y="656" type="line"/>
      <point x="79" y="657"/>
      <point x="103" y="659"/>
      <point x="127" y="660" type="curve"/>
      <point x="125" y="640"/>
      <point x="124" y="615"/>
      <point x="124" y="588" type="curve" smooth="yes"/>
      <point x="124" y="156" type="line" smooth="yes"/>
      <point x="124" y="85"/>
      <point x="130" y="36"/>
      <point x="55" y="33" type="curve"/>
      <point x="55" y="0" type="line"/>
      <point x="280" y="0" type="line"/>
      <point x="280" y="44" type="line"/>
      <point x="256" y="43"/>
      <point x="232" y="41"/>
      <point x="208" y="40" type="curve"/>
      <point x="210" y="57"/>
      <point x="211" y="83"/>
      <point x="211" y="119" type="curve" smooth="yes"/>
      <point x="211" y="334" type="line"/>
      <point x="569" y="338" type="line"/>
      <point x="569" y="6" type="line" smooth="yes"/>
      <point x="569" y="-108"/>
      <point x="542" y="-192"/>
      <point x="455" y="-192" type="curve" smooth="yes"/>
      <point x="438" y="-192"/>
      <point x="420" y="-189"/>
      <point x="399" y="-183" type="curve"/>
      <point x="389" y="-213" type="line"/>
      <point x="426" y="-224"/>
      <point x="459" y="-229"/>
    </contour>
  </outline>
</glyph>
<glyph name="enhook-cy" format="2">
  <advance width="622"/>
  <unicode hex="04C8"/>
  <outline>
    <contour>
      <point x="340" y="-229" type="curve" smooth="yes"/>
      <point x="484" y="-229"/>
      <point x="518" y="-128"/>
      <point x="518" y="42" type="curve" smooth="yes"/>
      <point x="519" y="348" type="line" smooth="yes"/>
      <point x="519" y="420"/>
      <point x="517" y="470"/>
      <point x="578" y="470" type="curve"/>
      <point x="578" y="500" type="line"/>
      <point x="374" y="500" type="line"/>
      <point x="374" y="459" type="line"/>
      <point x="437" y="462" type="line"/>
      <point x="433" y="439"/>
      <point x="433" y="421"/>
      <point x="433" y="394" type="curve" smooth="yes"/>
      <point x="432" y="40" type="line" smooth="yes"/>
      <point x="430" y="-105"/>
      <point x="418" y="-192"/>
      <point x="322" y="-192" type="curve" smooth="yes"/>
      <point x="306" y="-192"/>
      <point x="273" y="-187"/>
      <point x="254" y="-182" type="curve"/>
      <point x="245" y="-213" type="line"/>
      <point x="282" y="-224"/>
      <point x="311" y="-229"/>
    </contour>
    <contour>
      <point x="44" y="0" type="line"/>
      <point x="248" y="0" type="line"/>
      <point x="248" y="41" type="line"/>
      <point x="185" y="38" type="line"/>
      <point x="189" y="61"/>
      <point x="189" y="79"/>
      <point x="189" y="106" type="curve" smooth="yes"/>
      <point x="190" y="348" type="line" smooth="yes"/>
      <point x="191" y="420"/>
      <point x="188" y="470"/>
      <point x="250" y="470" type="curve"/>
      <point x="250" y="500" type="line"/>
      <point x="45" y="500" type="line"/>
      <point x="45" y="459" type="line"/>
      <point x="108" y="462" type="line"/>
      <point x="104" y="439"/>
      <point x="104" y="421"/>
      <point x="104" y="394" type="curve" smooth="yes"/>
      <point x="104" y="152" type="line" smooth="yes"/>
      <point x="103" y="80"/>
      <point x="105" y="30"/>
      <point x="44" y="30" type="curve"/>
    </contour>
    <contour>
      <point x="154" y="233" type="line"/>
      <point x="468" y="237" type="line"/>
      <point x="468" y="276" type="line"/>
      <point x="154" y="276" type="line"/>
    </contour>
  </outline>
</glyph>
<glyph name="Chekhakassian-cy" format="2">
  <advance width="725"/>
  <unicode hex="04CB"/>
  <outline>
    <contour>
      <point x="392" y="-178" type="line"/>
      <point x="433" y="-178" type="line"/>
      <point x="433" y="-78"/>
      <point x="447" y="0"/>
      <point x="513" y="0" type="curve" smooth="yes"/>
      <point x="670" y="0" type="line"/>
      <point x="670" y="44" type="line"/>
      <point x="646" y="43"/>
      <point x="622" y="41"/>
      <point x="598" y="40" type="curve"/>
      <point x="600" y="57"/>
      <point x="601" y="83"/>
      <point x="601" y="119" type="curve" smooth="yes"/>
      <point x="601" y="544" type="line" smooth="yes"/>
      <point x="601" y="615"/>
      <point x="595" y="664"/>
      <point x="670" y="667" type="curve"/>
      <point x="670" y="700" type="line"/>
      <point x="445" y="700" type="line"/>
      <point x="445" y="656" type="line"/>
      <point x="469" y="657"/>
      <point x="493" y="659"/>
      <point x="517" y="660" type="curve"/>
      <point x="515" y="640"/>
      <point x="514" y="615"/>
      <point x="514" y="588" type="curve" smooth="yes"/>
      <point x="514" y="360" type="line"/>
      <point x="479" y="339"/>
      <point x="426" y="325"/>
      <point x="367" y="324" type="curve" smooth="yes"/>
      <point x="257" y="323"/>
      <point x="212" y="383"/>
      <point x="211" y="451" type="curve"/>
      <point x="212" y="610"/>
      <point x="201" y="664"/>
      <point x="280" y="667" type="curve"/>
      <point x="280" y="700" type="line"/>
      <point x="55" y="700" type="line"/>
      <point x="55" y="656" type="line"/>
      <point x="79" y="657"/>
      <point x="103" y="659"/>
      <point x="127" y="660" type="curve"/>
      <point x="124" y="638"/>
      <point x="124" y="610"/>
      <point x="124" y="473" type="curve" smooth="yes"/>
      <point x="124" y="345"/>
      <point x="186" y="273"/>
      <point x="331" y="273" type="curve" smooth="yes"/>
      <point x="401" y="273"/>
      <point x="467" y="288"/>
      <point x="514" y="311" type="curve"/>
      <point x="514" y="143" type="line" smooth="yes"/>
      <point x="514" y="64"/>
      <point x="511" y="39"/>
      <point x="445" y="35" type="curve" smooth="yes"/>
      <point x="392" y="32" type="line"/>
    </contour>
  </outline>
</glyph>
<glyph name="Schwa-cy" format="2">
  <advance width="770"/>
  <unicode hex="04D8"/>
  <anchor x="383" y="700" name="top"/>
  <outline>
    <contour>
      <point x="395" y="-15" type="curve" smooth="yes"/>
      <point x="591" y="-15"/>
      <point x="726" y="158"/>
      <point x="726" y="369" type="curve" smooth="yes"/>
      <point x="726" y="539"/>
      <point x="623" y="716"/>
      <point x="385" y="716" type="curve" smooth="yes"/>
      <point x="315" y="716"/>
      <point x="220" y="702"/>
      <point x="153" y="655" type="curve"/>
      <point x="158" y="709" type="line"/>
      <point x="104" y="709" type="line"/>
      <point x="104" y="487" type="line"/>
      <point x="140" y="487" type="line"/>
      <point x="154" y="606"/>
      <point x="244" y="675"/>
      <point x="359" y="675" type="curve" smooth="yes"/>
      <point x="516" y="675"/>
      <point x="622" y="552"/>
      <point x="628" y="370" type="curve"/>
      <point x="65" y="369" type="line"/>
      <point x="64" y="354"/>
      <point x="63" y="339"/>
      <point x="63" y="324" type="curve" smooth="yes"/>
      <point x="63" y="117"/>
      <point x="188" y="-15"/>
    </contour>
    <contour>
      <point x="389" y="25" type="curve" smooth="yes"/>
      <point x="243" y="25"/>
      <point x="155" y="174"/>
      <point x="152" y="326" type="curve"/>
      <point x="627" y="330" type="line"/>
      <point x="620" y="158"/>
      <point x="529" y="25"/>
    </contour>
  </outline>
</glyph>
<glyph name="Obarred-cy" format="2">
  <advance width="794"/>
  <unicode hex="04E8"/>
  <outline>
    <contour>
      <point x="131" y="334" type="line"/>
      <point x="659" y="338" type="line"/>
      <point x="659" y="378" type="line"/>
      <point x="131" y="378" type="line"/>
    </contour>
    <component base="O"/>
  </outline>
</glyph>
<glyph name="gedescender-cy" format="2">
  <advance width="438"/>
  <unicode hex="04F7"/>
  <outline>
    <contour>
      <point x="263" y="-178" type="curve"/>
      <point x="304" y="-178" type="line"/>
      <point x="304" y="45" type="line"/>
      <point x="186" y="44" type="line"/>
      <point x="189" y="64"/>
      <point x="189" y="81"/>
      <point x="189" y="106" type="curve" smooth="yes"/>
      <point x="190" y="460" type="line"/>
      <point x="251" y="460" type="line" smooth="yes"/>
      <point x="359" y="460"/>
      <point x="385" y="433"/>
      <point x="387" y="349" type="curve"/>
      <point x="425" y="349" type="line"/>
      <point x="421" y="500" type="line"/>
      <point x="45" y="500" type="line"/>
      <point x="45" y="459" type="line"/>
      <point x="108" y="462" type="line"/>
      <point x="104" y="439"/>
      <point x="104" y="421"/>
      <point x="104" y="394" type="curve" smooth="yes"/>
      <point x="104" y="152" type="line" smooth="yes"/>
      <point x="103" y="80"/>
      <point x="105" y="30"/>
      <point x="44" y="30" type="curve"/>
      <point x="44" y="0" type="line"/>
      <point x="183" y="0" type="line" smooth="yes"/>
      <point x="249" y="0"/>
      <point x="263" y="-78"/>
    </contour>
  </outline>
</glyph>
<glyph name="Hahook-cy" format="2">
  <advance width="643"/>
  <unicode hex="04FC"/>
  <guideline x="320" y="-229" angle="0"/>
  <outline>
    <contour>
      <point x="464" y="-238" type="line"/>
      <point x="580" y="-201"/>
      <point x="626" y="-142"/>
      <point x="626" y="-69" type="curve" smooth="yes"/>
      <point x="626" y="-13"/>
      <point x="597" y="41"/>
      <point x="555" y="101" type="curve" smooth="yes"/>
      <point x="508" y="169"/>
      <point x="425" y="274"/>
      <point x="353" y="368" type="curve"/>
      <point x="466" y="528" type="line" smooth="yes"/>
      <point x="508" y="588"/>
      <point x="559" y="658"/>
      <point x="623" y="667" type="curve"/>
      <point x="623" y="700" type="line"/>
      <point x="426" y="700" type="line"/>
      <point x="426" y="656" type="line"/>
      <point x="454" y="657"/>
      <point x="482" y="659"/>
      <point x="510" y="660" type="curve"/>
      <point x="489" y="641"/>
      <point x="455" y="592"/>
      <point x="421" y="544" type="curve" smooth="yes"/>
      <point x="325" y="405" type="line"/>
      <point x="273" y="477"/>
      <point x="225" y="544"/>
      <point x="201" y="584" type="curve" smooth="yes"/>
      <point x="178" y="621"/>
      <point x="151" y="662"/>
      <point x="224" y="665" type="curve" smooth="yes"/>
      <point x="268" y="667" type="line"/>
      <point x="268" y="700" type="line"/>
      <point x="9" y="700" type="line"/>
      <point x="9" y="656" type="line"/>
      <point x="27" y="657"/>
      <point x="46" y="657"/>
      <point x="64" y="658" type="curve"/>
      <point x="76" y="628"/>
      <point x="87" y="609"/>
      <point x="123" y="557" type="curve"/>
      <point x="279" y="339" type="line"/>
      <point x="149" y="153" type="line" smooth="yes"/>
      <point x="104" y="87"/>
      <point x="76" y="46"/>
      <point x="12" y="33" type="curve"/>
      <point x="12" y="0" type="line"/>
      <point x="208" y="0" type="line"/>
      <point x="208" y="44" type="line"/>
      <point x="180" y="42"/>
      <point x="153" y="41"/>
      <point x="125" y="39" type="curve"/>
      <point x="158" y="77"/>
      <point x="183" y="117"/>
      <point x="207" y="153" type="curve" smooth="yes"/>
      <point x="240" y="203"/>
      <point x="273" y="252"/>
      <point x="306" y="300" type="curve"/>
      <point x="349" y="243"/>
      <point x="481" y="66"/>
      <point x="496" y="44" type="curve" smooth="yes"/>
      <point x="532" y="-10"/>
      <point x="557" y="-60"/>
      <point x="555" y="-103" type="curve" smooth="yes"/>
      <point x="553" y="-149"/>
      <point x="523" y="-186"/>
      <point x="455" y="-207" type="curve"/>
    </contour>
  </outline>
</glyph>
<glyph name="hahook-cy" format="2">
  <advance width="513"/>
  <unicode hex="04FD"/>
  <outline>
    <contour>
      <point x="384" y="-239" type="line"/>
      <point x="453" y="-210"/>
      <point x="519" y="-157"/>
      <point x="519" y="-82" type="curve" smooth="yes"/>
      <point x="518" y="-23"/>
      <point x="497" y="19"/>
      <point x="432" y="99" type="curve" smooth="yes"/>
      <point x="292" y="271" type="line"/>
      <point x="369" y="363" type="line" smooth="yes"/>
      <point x="423" y="428"/>
      <point x="443" y="454"/>
      <point x="498" y="470" type="curve"/>
      <point x="498" y="500" type="line"/>
      <point x="334" y="500" type="line"/>
      <point x="334" y="459" type="line"/>
      <point x="403" y="463" type="line"/>
      <point x="389" y="449"/>
      <point x="378" y="434"/>
      <point x="358" y="410" type="curve" smooth="yes"/>
      <point x="267" y="300" type="line"/>
      <point x="209" y="379" type="line" smooth="yes"/>
      <point x="159" y="447"/>
      <point x="168" y="468"/>
      <point x="228" y="470" type="curve"/>
      <point x="228" y="500" type="line"/>
      <point x="22" y="500" type="line"/>
      <point x="22" y="459" type="line"/>
      <point x="69" y="461" type="line"/>
      <point x="76" y="443"/>
      <point x="88" y="416"/>
      <point x="120" y="374" type="curve" smooth="yes"/>
      <point x="139" y="349"/>
      <point x="190" y="279"/>
      <point x="219" y="241" type="curve"/>
      <point x="119" y="111" type="line" smooth="yes"/>
      <point x="82" y="63"/>
      <point x="65" y="40"/>
      <point x="24" y="30" type="curve"/>
      <point x="24" y="0" type="line"/>
      <point x="192" y="0" type="line"/>
      <point x="192" y="41" type="line"/>
      <point x="115" y="38" type="line"/>
      <point x="135" y="59"/>
      <point x="141" y="67"/>
      <point x="161" y="94" type="curve" smooth="yes"/>
      <point x="245" y="209" type="line"/>
      <point x="373" y="50" type="line" smooth="yes"/>
      <point x="440" y="-34"/>
      <point x="452" y="-76"/>
      <point x="452" y="-107" type="curve" smooth="yes"/>
      <point x="452" y="-139"/>
      <point x="445" y="-171"/>
      <point x="370" y="-209" type="curve"/>
    </contour>
  </outline>
</glyph>
<glyph name="hastroke-cy" format="2">
  <advance width="530"/>
  <unicode hex="04FF"/>
  <outline>
    <contour>
      <point x="74" y="232" type="line"/>
      <point x="437" y="236" type="line"/>
      <point x="437" y="273" type="line"/>
      <point x="74" y="273" type="line"/>
    </contour>
    <component base="ha-cy"/>
  </outline>
</glyph>
<glyph name="Elhook-cy" format="2">
  <advance width="700"/>
  <unicode hex="0512"/>
  <outline>
    <contour>
      <point x="407" y="-229" type="curve" smooth="yes"/>
      <point x="530" y="-229"/>
      <point x="576" y="-131"/>
      <point x="576" y="14" type="curve" smooth="yes"/>
      <point x="576" y="544" type="line" smooth="yes"/>
      <point x="576" y="615"/>
      <point x="570" y="664"/>
      <point x="645" y="667" type="curve"/>
      <point x="645" y="700" type="line"/>
      <point x="150" y="700" type="line"/>
      <point x="150" y="656" type="line"/>
      <point x="223" y="660" type="line"/>
      <point x="244" y="660" type="line"/>
      <point x="244" y="511" type="line" smooth="yes"/>
      <point x="244" y="178"/>
      <point x="167" y="25"/>
      <point x="112" y="25" type="curve" smooth="yes"/>
      <point x="105" y="25"/>
      <point x="101" y="27"/>
      <point x="95" y="33" type="curve"/>
      <point x="103" y="41"/>
      <point x="105" y="47"/>
      <point x="105" y="60" type="curve" smooth="yes"/>
      <point x="105" y="80"/>
      <point x="89" y="106"/>
      <point x="56" y="104" type="curve" smooth="yes"/>
      <point x="27" y="103"/>
      <point x="7" y="81"/>
      <point x="7" y="52" type="curve" smooth="yes"/>
      <point x="7" y="10"/>
      <point x="51" y="-16"/>
      <point x="99" y="-16" type="curve" smooth="yes"/>
      <point x="239" y="-16"/>
      <point x="292" y="290"/>
      <point x="292" y="582" type="curve" smooth="yes"/>
      <point x="294" y="634"/>
      <point x="302" y="656"/>
      <point x="348" y="660" type="curve"/>
      <point x="489" y="661" type="line"/>
      <point x="489" y="5" type="line" smooth="yes"/>
      <point x="489" y="-109"/>
      <point x="462" y="-192"/>
      <point x="375" y="-192" type="curve" smooth="yes"/>
      <point x="359" y="-192"/>
      <point x="340" y="-189"/>
      <point x="319" y="-183" type="curve"/>
      <point x="309" y="-213" type="line"/>
      <point x="346" y="-224"/>
      <point x="379" y="-229"/>
    </contour>
  </outline>
</glyph>
<glyph name="Shhadescender-cy" format="2">
  <advance width="690"/>
  <unicode hex="0526"/>
  <guideline x="514" y="193" angle="90"/>
  <outline>
    <contour>
      <point x="649" y="-178" type="curve"/>
      <point x="690" y="-178" type="line"/>
      <point x="690" y="45" type="line"/>
      <point x="598" y="40" type="line"/>
      <point x="601" y="62"/>
      <point x="601" y="90"/>
      <point x="601" y="227" type="curve" smooth="yes"/>
      <point x="601" y="355"/>
      <point x="539" y="427"/>
      <point x="394" y="427" type="curve" smooth="yes"/>
      <point x="324" y="427"/>
      <point x="258" y="412"/>
      <point x="211" y="389" type="curve"/>
      <point x="211" y="544" type="line" smooth="yes"/>
      <point x="211" y="615"/>
      <point x="205" y="664"/>
      <point x="280" y="667" type="curve"/>
      <point x="280" y="700" type="line"/>
      <point x="55" y="700" type="line"/>
      <point x="55" y="656" type="line"/>
      <point x="79" y="657"/>
      <point x="103" y="659"/>
      <point x="127" y="660" type="curve"/>
      <point x="125" y="643"/>
      <point x="124" y="617"/>
      <point x="124" y="581" type="curve" smooth="yes"/>
      <point x="124" y="156" type="line" smooth="yes"/>
      <point x="124" y="85"/>
      <point x="130" y="36"/>
      <point x="55" y="33" type="curve"/>
      <point x="55" y="0" type="line"/>
      <point x="280" y="0" type="line"/>
      <point x="280" y="44" type="line"/>
      <point x="256" y="43"/>
      <point x="232" y="41"/>
      <point x="208" y="40" type="curve"/>
      <point x="210" y="60"/>
      <point x="211" y="85"/>
      <point x="211" y="112" type="curve" smooth="yes"/>
      <point x="211" y="340" type="line"/>
      <point x="246" y="361"/>
      <point x="299" y="375"/>
      <point x="358" y="376" type="curve" smooth="yes"/>
      <point x="468" y="377"/>
      <point x="513" y="316"/>
      <point x="514" y="248" type="curve" smooth="yes"/>
      <point x="514" y="155" type="line" smooth="yes"/>
      <point x="514" y="68"/>
      <point x="506" y="35"/>
      <point x="445" y="33" type="curve"/>
      <point x="445" y="0" type="line"/>
      <point x="569" y="0" type="line" smooth="yes"/>
      <point x="635" y="0"/>
      <point x="649" y="-78"/>
    </contour>
  </outline>
</glyph>
<glyph name="uni1C85" format="2">
  <advance width="830"/>
  <unicode hex="1C85"/>
  <outline>
    <contour>
      <point x="44" y="0" type="line"/>
      <point x="248" y="0" type="line"/>
      <point x="248" y="41" type="line"/>
      <point x="185" y="38" type="line"/>
      <point x="189" y="61"/>
      <point x="189" y="79"/>
      <point x="189" y="106" type="curve" smooth="yes"/>
      <point x="189" y="348" type="line" smooth="yes"/>
      <point x="191" y="420"/>
      <point x="189" y="459"/>
      <point x="250" y="460" type="curve" smooth="yes"/>
      <point x="372" y="462" type="line"/>
      <point x="369" y="439"/>
      <point x="369" y="421"/>
      <point x="369" y="394" type="curve" smooth="yes"/>
      <point x="369" y="152" type="line" smooth="yes"/>
      <point x="367" y="80"/>
      <point x="369" y="30"/>
      <point x="308" y="30" type="curve"/>
      <point x="308" y="0" type="line"/>
      <point x="512" y="0" type="line"/>
      <point x="512" y="41" type="line"/>
      <point x="449" y="38" type="line"/>
      <point x="453" y="61"/>
      <point x="453" y="79"/>
      <point x="453" y="106" type="curve" smooth="yes"/>
      <point x="453" y="348" type="line" smooth="yes"/>
      <point x="455" y="420"/>
      <point x="453" y="459"/>
      <point x="514" y="460" type="curve" smooth="yes"/>
      <point x="645" y="462" type="line"/>
      <point x="641" y="439"/>
      <point x="641" y="421"/>
      <point x="641" y="394" type="curve" smooth="yes"/>
      <point x="641" y="152" type="line" smooth="yes"/>
      <point x="640" y="80"/>
      <point x="642" y="30"/>
      <point x="580" y="30" type="curve"/>
      <point x="580" y="0" type="line"/>
      <point x="785" y="0" type="line"/>
      <point x="785" y="41" type="line"/>
      <point x="722" y="38" type="line"/>
      <point x="726" y="61"/>
      <point x="726" y="79"/>
      <point x="726" y="106" type="curve" smooth="yes"/>
      <point x="726" y="348" type="line" smooth="yes"/>
      <point x="727" y="420"/>
      <point x="725" y="470"/>
      <point x="786" y="470" type="curve"/>
      <point x="786" y="500" type="line"/>
      <point x="46" y="500" type="line"/>
      <point x="46" y="459" type="line"/>
      <point x="109" y="462" type="line"/>
      <point x="105" y="439"/>
      <point x="105" y="421"/>
      <point x="104" y="394" type="curve"/>
      <point x="104" y="152" type="line" smooth="yes"/>
      <point x="103" y="80"/>
      <point x="105" y="30"/>
      <point x="44" y="30" type="curve"/>
    </contour>
  </outline>
</glyph>
<glyph name="emdash" format="2">
  <advance width="841"/>
  <unicode hex="2014"/>
  <outline>
    <contour>
      <point x="66" y="285" type="line"/>
      <point x="771" y="289" type="line"/>
      <point x="771" y="355" type="line"/>
      <point x="66" y="355" type="line"/>
    </contour>
  </outline>
</glyph>
<glyph name="bullet" format="2">
  <advance width="401"/>
  <unicode hex="2022"/>
  <outline>
    <contour>
      <point x="200" y="226" type="curve" smooth="yes"/>
      <point x="283" y="226"/>
      <point x="351" y="291"/>
      <point x="351" y="374" type="curve" smooth="yes"/>
      <point x="351" y="457"/>
      <point x="283" y="522"/>
      <point x="200" y="522" type="curve" smooth="yes"/>
      <point x="117" y="522"/>
      <point x="50" y="457"/>
      <point x="50" y="374" type="curve" smooth="yes"/>
      <point x="50" y="291"/>
      <point x="117" y="226"/>
    </contour>
  </outline>
</glyph>
<glyph name="perthousand" format="2">
  <advance width="1291"/>
  <unicode hex="2030"/>
  <outline>
    <contour>
      <point x="1077" y="-16" type="curve" smooth="yes"/>
      <point x="1194" y="-14"/>
      <point x="1258" y="85"/>
      <point x="1258" y="178" type="curve" smooth="yes"/>
      <point x="1258" y="274"/>
      <point x="1196" y="365"/>
      <point x="1077" y="365" type="curve" smooth="yes"/>
      <point x="975" y="365"/>
      <point x="892" y="272"/>
      <point x="892" y="169" type="curve" smooth="yes"/>
      <point x="892" y="77"/>
      <point x="953" y="-18"/>
    </contour>
    <contour>
      <point x="1078" y="20" type="curve" smooth="yes"/>
      <point x="1003" y="20"/>
      <point x="979" y="118"/>
      <point x="979" y="185" type="curve" smooth="yes"/>
      <point x="979" y="247"/>
      <point x="1001" y="325"/>
      <point x="1074" y="326" type="curve" smooth="yes"/>
      <point x="1153" y="327"/>
      <point x="1172" y="226"/>
      <point x="1172" y="162" type="curve" smooth="yes"/>
      <point x="1172" y="111"/>
      <point x="1153" y="20"/>
    </contour>
    <component base="percent" xOffset="3"/>
  </outline>
</glyph>
<glyph name="guilsinglright" format="2">
  <advance width="383"/>
  <unicode hex="203A"/>
  <outline>
    <contour>
      <point x="77" y="-7" type="line"/>
      <point x="351" y="274" type="line"/>
      <point x="351" y="278" type="line"/>
      <point x="80" y="549" type="line"/>
      <point x="48" y="517" type="line"/>
      <point x="243" y="280" type="line"/>
      <point x="243" y="278" type="line"/>
      <point x="46" y="25" type="line"/>
    </contour>
  </outline>
</glyph>
<glyph name="tugrik" format="2">
  <advance width="640"/>
  <unicode hex="20AE"/>
  <guideline x="491" y="366" angle="90"/>
  <guideline x="363" y="369" angle="90"/>
  <outline>
    <contour>
      <point x="147" y="317" type="line"/>
      <point x="496" y="418" type="line"/>
      <point x="496" y="460" type="line"/>
      <point x="147" y="360" type="line"/>
    </contour>
    <contour>
      <point x="147" y="187" type="line"/>
      <point x="496" y="288" type="line"/>
      <point x="496" y="330" type="line"/>
      <point x="147" y="230" type="line"/>
    </contour>
    <component base="T"/>
  </outline>
</glyph>
<glyph name="tenge" format="2">
  <advance width="640"/>
  <unicode hex="20B8"/>
  <anchor x="321" y="0" name="bottom"/>
  <anchor x="320" y="350" name="center"/>
  <anchor x="320" y="700" name="top"/>
  <outline>
    <contour>
      <point x="579" y="379" type="curve"/>
      <point x="617" y="379" type="line"/>
      <point x="611" y="590" type="line"/>
      <point x="28" y="590" type="line"/>
      <point x="22" y="379" type="line"/>
      <point x="59" y="379" type="line"/>
      <point x="59" y="497"/>
      <point x="90" y="552"/>
      <point x="174" y="552" type="curve" smooth="yes"/>
      <point x="277" y="553" type="line"/>
      <point x="276" y="156" type="line" smooth="yes"/>
      <point x="276" y="88"/>
      <point x="283" y="36"/>
      <point x="208" y="33" type="curve"/>
      <point x="208" y="0" type="line"/>
      <point x="443" y="0" type="line"/>
      <point x="443" y="44" type="line"/>
      <point x="415" y="43"/>
      <point x="388" y="41"/>
      <point x="360" y="40" type="curve"/>
      <point x="362" y="57"/>
      <point x="363" y="83"/>
      <point x="363" y="119" type="curve" smooth="yes"/>
      <point x="364" y="554" type="line"/>
      <point x="449" y="554" type="line" smooth="yes"/>
      <point x="552" y="555"/>
      <point x="577" y="497"/>
    </contour>
    <contour>
      <point x="28" y="700" type="line"/>
      <point x="28" y="657" type="line"/>
      <point x="611" y="658" type="line"/>
      <point x="611" y="700" type="line"/>
    </contour>
  </outline>
</glyph>
<glyph name="product" format="2">
  <advance width="795"/>
  <unicode hex="220F"/>
  <outline>
    <contour>
      <point x="55" y="-255" type="line"/>
      <point x="280" y="-255" type="line"/>
      <point x="280" y="-211" type="line"/>
      <point x="256" y="-212"/>
      <point x="232" y="-214"/>
      <point x="208" y="-215" type="curve"/>
      <point x="210" y="-198"/>
      <point x="211" y="-172"/>
      <point x="211" y="-136" type="curve" smooth="yes"/>
      <point x="211" y="656" type="line"/>
      <point x="584" y="661" type="line"/>
      <point x="584" y="-99" type="line" smooth="yes"/>
      <point x="584" y="-170"/>
      <point x="590" y="-219"/>
      <point x="515" y="-222" type="curve"/>
      <point x="515" y="-255" type="line"/>
      <point x="740" y="-255" type="line"/>
      <point x="740" y="-211" type="line"/>
      <point x="716" y="-212"/>
      <point x="692" y="-214"/>
      <point x="668" y="-215" type="curve"/>
      <point x="670" y="-198"/>
      <point x="671" y="-172"/>
      <point x="671" y="-136" type="curve" smooth="yes"/>
      <point x="671" y="544" type="line" smooth="yes"/>
      <point x="671" y="615"/>
      <point x="665" y="664"/>
      <point x="740" y="667" type="curve"/>
      <point x="740" y="700" type="line"/>
      <point x="55" y="700" type="line"/>
      <point x="55" y="656" type="line"/>
      <point x="79" y="657"/>
      <point x="103" y="659"/>
      <point x="127" y="660" type="curve"/>
      <point x="125" y="640"/>
      <point x="124" y="615"/>
      <point x="124" y="588" type="curve" smooth="yes"/>
      <point x="124" y="-99" type="line" smooth="yes"/>
      <point x="124" y="-170"/>
      <point x="130" y="-219"/>
      <point x="55" y="-222" type="curve"/>
    </contour>
  </outline>
</glyph>
<glyph name="minus" format="2">
  <advance width="530"/>
  <unicode hex="2212"/>
  <outline>
    <contour>
      <point x="42" y="390" type="line"/>
      <point x="42" y="340" type="line"/>
      <point x="488" y="340" type="line"/>
      <point x="488" y="390" type="line"/>
    </contour>
  </outline>
</glyph>
<glyph name="divisionslash" format="2">
  <advance width="375"/>
  <unicode hex="2215"/>
  <outline>
    <contour>
      <point x="25" y="-54" type="line"/>
      <point x="370" y="718" type="line"/>
      <point x="321" y="742" type="line"/>
      <point x="-16" y="-35" type="line"/>
    </contour>
  </outline>
</glyph>
<glyph name="notequal" format="2">
  <advance width="530"/>
  <unicode hex="2260"/>
  <outline>
    <contour>
      <point x="135" y="120" type="line"/>
      <point x="456" y="600" type="line"/>
      <point x="420" y="624" type="line"/>
      <point x="101" y="144" type="line"/>
    </contour>
    <contour>
      <point x="42" y="465" type="line"/>
      <point x="42" y="415" type="line"/>
      <point x="488" y="415" type="line"/>
      <point x="488" y="465" type="line"/>
    </contour>
    <contour>
      <point x="42" y="315" type="line"/>
      <point x="42" y="265" type="line"/>
      <point x="488" y="265" type="line"/>
      <point x="488" y="315" type="line"/>
    </contour>
  </outline>
</glyph>
<glyph name="lessequal" format="2">
  <advance width="530"/>
  <unicode hex="2264"/>
  <guideline x="206" y="571" angle="0"/>
  <outline>
    <contour>
      <point x="42" y="0" type="line"/>
      <point x="487" y="0" type="line"/>
      <point x="487" y="52" type="line"/>
      <point x="42" y="56" type="line"/>
    </contour>
    <component base="less" xOffset="8" yOffset="27"/>
  </outline>
</glyph>
<glyph name=".notdef" format="2">
  <advance width="529"/>
  <outline>
    <contour>
      <point x="50" y="0" type="line"/>
      <point x="464" y="0" type="line"/>
      <point x="464" y="500" type="line"/>
      <point x="50" y="500" type="line"/>
    </contour>
    <contour>
      <point x="133" y="38" type="line"/>
      <point x="133" y="462" type="line"/>
      <point x="381" y="462" type="line"/>
      <point x="381" y="38" type="line"/>
    </contour>
  </outline>
</glyph>
<glyph name="brevecomb-cy" format="2">
  <anchor x="190" y="500" name="_top"/>
  <outline>
    <contour>
      <point x="190" y="577" type="curve" smooth="yes"/>
      <point x="267" y="577"/>
      <point x="330" y="610"/>
      <point x="330" y="664" type="curve" smooth="yes"/>
      <point x="330" y="688"/>
      <point x="315" y="709"/>
      <point x="291" y="710" type="curve" smooth="yes"/>
      <point x="257" y="711"/>
      <point x="249" y="684"/>
      <point x="249" y="669" type="curve" smooth="yes"/>
      <point x="249" y="658"/>
      <point x="251" y="644"/>
      <point x="258" y="633" type="curve"/>
      <point x="250" y="619"/>
      <point x="217" y="614"/>
      <point x="190" y="614" type="curve" smooth="yes"/>
      <point x="163" y="614"/>
      <point x="129" y="619"/>
      <point x="122" y="633" type="curve"/>
      <point x="128" y="644"/>
      <point x="131" y="658"/>
      <point x="131" y="669" type="curve" smooth="yes"/>
      <point x="131" y="684"/>
      <point x="123" y="711"/>
      <point x="89" y="710" type="curve" smooth="yes"/>
      <point x="64" y="709"/>
      <point x="50" y="688"/>
      <point x="50" y="664" type="curve" smooth="yes"/>
      <point x="50" y="610"/>
      <point x="113" y="577"/>
    </contour>
  </outline>
</glyph>
<glyph name="brevecomb_gravecomb.case" format="2">
  <outline>
    <contour>
      <point x="185" y="604" type="curve" smooth="yes"/>
      <point x="247" y="604"/>
      <point x="294" y="645"/>
      <point x="323" y="725" type="curve"/>
      <point x="296" y="737" type="line"/>
      <point x="277" y="700"/>
      <point x="234" y="665"/>
      <point x="188" y="665" type="curve" smooth="yes"/>
      <point x="142" y="665"/>
      <point x="99" y="698"/>
      <point x="79" y="735" type="curve"/>
      <point x="50" y="720" type="line"/>
      <point x="75" y="641"/>
      <point x="133" y="604"/>
    </contour>
    <contour>
      <point x="186" y="712" type="line"/>
      <point x="214" y="735" type="line"/>
      <point x="130" y="870" type="line" smooth="yes"/>
      <point x="100" y="913"/>
      <point x="70" y="893"/>
      <point x="65" y="889" type="curve" smooth="yes"/>
      <point x="57" y="882"/>
      <point x="38" y="856"/>
      <point x="74" y="818" type="curve" smooth="yes"/>
    </contour>
  </outline>
</glyph>
<glyph name="brevecomb_gravecomb" format="2">
  <anchor x="187" y="490" name="_top"/>
  <outline>
    <contour>
      <point x="186" y="674" type="line"/>
      <point x="214" y="697" type="line"/>
      <point x="130" y="832" type="line" smooth="yes"/>
      <point x="100" y="875"/>
      <point x="70" y="855"/>
      <point x="65" y="851" type="curve" smooth="yes"/>
      <point x="57" y="844"/>
      <point x="38" y="818"/>
      <point x="74" y="780" type="curve" smooth="yes"/>
    </contour>
    <contour>
      <point x="185" y="568" type="curve" smooth="yes"/>
      <point x="247" y="568"/>
      <point x="294" y="609"/>
      <point x="323" y="689" type="curve"/>
      <point x="296" y="701" type="line"/>
      <point x="277" y="664"/>
      <point x="234" y="629"/>
      <point x="188" y="629" type="curve" smooth="yes"/>
      <point x="142" y="629"/>
      <point x="99" y="662"/>
      <point x="79" y="699" type="curve"/>
      <point x="50" y="684" type="line"/>
      <point x="75" y="605"/>
      <point x="133" y="568"/>
    </contour>
  </outline>
</glyph>
<glyph name="brevecomb_hookabovecomb" format="2">
  <anchor x="189" y="500" name="_top"/>
  <anchor x="189" y="878" name="top"/>
  <outline>
    <contour>
      <point x="190" y="566" type="curve" smooth="yes"/>
      <point x="252" y="566"/>
      <point x="299" y="607"/>
      <point x="328" y="687" type="curve"/>
      <point x="301" y="699" type="line"/>
      <point x="282" y="662"/>
      <point x="239" y="627"/>
      <point x="193" y="627" type="curve" smooth="yes"/>
      <point x="147" y="627"/>
      <point x="104" y="660"/>
      <point x="84" y="697" type="curve"/>
      <point x="55" y="682" type="line"/>
      <point x="80" y="603"/>
      <point x="138" y="566"/>
    </contour>
    <contour>
      <point x="172" y="708" type="curve"/>
      <point x="213" y="708" type="line"/>
      <point x="213" y="719"/>
      <point x="227" y="728"/>
      <point x="243" y="740" type="curve" smooth="yes"/>
      <point x="267" y="758"/>
      <point x="284" y="775"/>
      <point x="284" y="809" type="curve" smooth="yes"/>
      <point x="284" y="849"/>
      <point x="245" y="890"/>
      <point x="175" y="890" type="curve" smooth="yes"/>
      <point x="108" y="890"/>
      <point x="71" y="854"/>
      <point x="71" y="820" type="curve" smooth="yes"/>
      <point x="71" y="793"/>
      <point x="88" y="782"/>
      <point x="104" y="782" type="curve" smooth="yes"/>
      <point x="120" y="782"/>
      <point x="135" y="792"/>
      <point x="135" y="808" type="curve" smooth="yes"/>
      <point x="135" y="814"/>
      <point x="132" y="820"/>
      <point x="129" y="824" type="curve"/>
      <point x="131" y="838"/>
      <point x="152" y="854"/>
      <point x="176" y="854" type="curve" smooth="yes"/>
      <point x="209" y="854"/>
      <point x="229" y="829"/>
      <point x="229" y="802" type="curve" smooth="yes"/>
      <point x="229" y="788"/>
      <point x="223" y="772"/>
      <point x="210" y="761" type="curve" smooth="yes"/>
      <point x="193" y="746"/>
      <point x="172" y="732"/>
    </contour>
  </outline>
</glyph>
<glyph name="caroncomb.case" format="2">
  <anchor x="235" y="700" name="_top"/>
  <anchor x="235" y="957" name="top"/>
  <outline>
    <contour>
      <point x="229" y="780" type="line"/>
      <point x="231" y="780" type="line"/>
      <point x="425" y="925" type="line"/>
      <point x="405" y="957" type="line"/>
      <point x="235" y="867" type="line"/>
      <point x="67" y="955" type="line"/>
      <point x="45" y="921" type="line"/>
    </contour>
  </outline>
</glyph>
<glyph name="che-cy.loclBGR" format="2">
  <advance width="563"/>
  <outline>
    <contour>
      <point x="315" y="0" type="line"/>
      <point x="519" y="0" type="line"/>
      <point x="519" y="41" type="line"/>
      <point x="456" y="38" type="line"/>
      <point x="460" y="61"/>
      <point x="460" y="79"/>
      <point x="460" y="106" type="curve" smooth="yes"/>
      <point x="462" y="510" type="line"/>
      <point x="433" y="510" type="line"/>
      <point x="408" y="487"/>
      <point x="382" y="483"/>
      <point x="308" y="483" type="curve"/>
      <point x="308" y="442" type="line"/>
      <point x="332" y="443"/>
      <point x="356" y="444"/>
      <point x="380" y="445" type="curve"/>
      <point x="376" y="422"/>
      <point x="375" y="401"/>
      <point x="375" y="369" type="curve" smooth="yes"/>
      <point x="374" y="235" type="line"/>
      <point x="343" y="227"/>
      <point x="306" y="223"/>
      <point x="279" y="223" type="curve" smooth="yes"/>
      <point x="204" y="223"/>
      <point x="168" y="269"/>
      <point x="168" y="337" type="curve" smooth="yes"/>
      <point x="168" y="510" type="line"/>
      <point x="139" y="510" type="line"/>
      <point x="113" y="486"/>
      <point x="91" y="483"/>
      <point x="17" y="483" type="curve"/>
      <point x="17" y="442" type="line"/>
      <point x="40" y="443"/>
      <point x="63" y="444"/>
      <point x="86" y="445" type="curve"/>
      <point x="83" y="427"/>
      <point x="82" y="388"/>
      <point x="82" y="342" type="curve" smooth="yes"/>
      <point x="82" y="236"/>
      <point x="146" y="172"/>
      <point x="261" y="172" type="curve" smooth="yes"/>
      <point x="290" y="172"/>
      <point x="335" y="176"/>
      <point x="374" y="186" type="curve"/>
      <point x="374" y="152" type="line" smooth="yes"/>
      <point x="374" y="80"/>
      <point x="376" y="30"/>
      <point x="315" y="30" type="curve"/>
    </contour>
  </outline>
</glyph>
<glyph name="circumflexcomb.case.i" format="2">
  <anchor x="235" y="700" name="_top"/>
  <anchor x="240" y="931" name="top"/>
  <outline>
    <contour>
      <point x="365" y="760" type="line"/>
      <point x="388" y="790" type="line"/>
      <point x="241" y="931" type="line"/>
      <point x="239" y="931" type="line"/>
      <point x="84" y="789" type="line"/>
      <point x="109" y="760" type="line"/>
      <point x="236" y="844" type="line"/>
    </contour>
  </outline>
</glyph>
<glyph name="circumflexcomb_acutecomb.case" format="2">
  <outline>
    <contour>
      <point x="307.636" y="559.064" type="line"/>
      <point x="326.643" y="583.856" type="line"/>
      <point x="205.162" y="700.378" type="line"/>
      <point x="203.51" y="700.378" type="line"/>
      <point x="75.418" y="583.03" type="line"/>
      <point x="96.078" y="559.064" type="line"/>
      <point x="201.03" y="628.482" type="line"/>
    </contour>
    <contour>
      <point x="351" y="633" type="line"/>
      <point x="463" y="739" type="line" smooth="yes"/>
      <point x="499" y="777"/>
      <point x="480" y="803"/>
      <point x="472" y="810" type="curve" smooth="yes"/>
      <point x="467" y="814"/>
      <point x="437" y="834"/>
      <point x="407" y="791" type="curve" smooth="yes"/>
      <point x="323" y="656" type="line"/>
    </contour>
  </outline>
</glyph>
<glyph name="circumflexcomb_gravecomb.case" format="2">
  <outline>
    <contour>
      <point x="324.636" y="559.064" type="line"/>
      <point x="343.643" y="583.856" type="line"/>
      <point x="222.162" y="700.378" type="line"/>
      <point x="220.51" y="700.378" type="line"/>
      <point x="92.418" y="583.03" type="line"/>
      <point x="113.078" y="559.064" type="line"/>
      <point x="218.03" y="628.482" type="line"/>
    </contour>
    <contour>
      <point x="346" y="664" type="line"/>
      <point x="374" y="687" type="line"/>
      <point x="290" y="822" type="line" smooth="yes"/>
      <point x="260" y="865"/>
      <point x="230" y="845"/>
      <point x="225" y="841" type="curve" smooth="yes"/>
      <point x="217" y="834"/>
      <point x="198" y="808"/>
      <point x="234" y="770" type="curve" smooth="yes"/>
    </contour>
  </outline>
</glyph>
<glyph name="circumflexcomb_hookabovecomb.case" format="2">
  <outline>
    <contour>
      <point x="346.636" y="559.064" type="line"/>
      <point x="365.643" y="583.856" type="line"/>
      <point x="244.162" y="700.378" type="line"/>
      <point x="242.51" y="700.378" type="line"/>
      <point x="114.418" y="583.03" type="line"/>
      <point x="135.078" y="559.064" type="line"/>
      <point x="240.03" y="628.482" type="line"/>
    </contour>
    <contour>
      <point x="354" y="656" type="curve"/>
      <point x="395" y="656" type="line"/>
      <point x="395" y="667"/>
      <point x="409" y="676"/>
      <point x="425" y="688" type="curve" smooth="yes"/>
      <point x="449" y="706"/>
      <point x="466" y="723"/>
      <point x="466" y="757" type="curve" smooth="yes"/>
      <point x="466" y="797"/>
      <point x="427" y="838"/>
      <point x="357" y="838" type="curve" smooth="yes"/>
      <point x="290" y="838"/>
      <point x="253" y="802"/>
      <point x="253" y="768" type="curve" smooth="yes"/>
      <point x="253" y="741"/>
      <point x="270" y="730"/>
      <point x="286" y="730" type="curve" smooth="yes"/>
      <point x="302" y="730"/>
      <point x="317" y="740"/>
      <point x="317" y="756" type="curve" smooth="yes"/>
      <point x="317" y="762"/>
      <point x="314" y="768"/>
      <point x="311" y="772" type="curve"/>
      <point x="313" y="786"/>
      <point x="334" y="802"/>
      <point x="358" y="802" type="curve" smooth="yes"/>
      <point x="391" y="802"/>
      <point x="411" y="777"/>
      <point x="411" y="750" type="curve" smooth="yes"/>
      <point x="411" y="736"/>
      <point x="405" y="720"/>
      <point x="392" y="709" type="curve" smooth="yes"/>
      <point x="375" y="694"/>
      <point x="354" y="680"/>
    </contour>
  </outline>
</glyph>
<glyph name="circumflexcomb_tildecomb.case" format="2">
  <outline>
    <contour>
      <point x="324.636" y="558.064" type="line"/>
      <point x="343.643" y="582.856" type="line"/>
      <point x="222.162" y="699.378" type="line"/>
      <point x="220.51" y="699.378" type="line"/>
      <point x="92.418" y="582.03" type="line"/>
      <point x="113.078" y="558.064" type="line"/>
      <point x="218.03" y="627.482" type="line"/>
    </contour>
    <contour>
      <point x="404" y="807" type="curve"/>
      <point x="375" y="822" type="line"/>
      <point x="359" y="793"/>
      <point x="331" y="774"/>
      <point x="302" y="774" type="curve" smooth="yes"/>
      <point x="258" y="774"/>
      <point x="233" y="829"/>
      <point x="170" y="827" type="curve" smooth="yes"/>
      <point x="133" y="826"/>
      <point x="85" y="788"/>
      <point x="68" y="741" type="curve"/>
      <point x="98" y="724" type="line"/>
      <point x="117" y="754"/>
      <point x="147" y="766"/>
      <point x="171" y="766" type="curve" smooth="yes"/>
      <point x="208" y="766"/>
      <point x="240" y="712"/>
      <point x="302" y="712" type="curve" smooth="yes"/>
      <point x="337" y="712"/>
      <point x="382" y="741"/>
    </contour>
  </outline>
</glyph>
<glyph name="el-cy.loclBGR" format="2">
  <advance width="505"/>
  <outline>
    <contour>
      <point x="3" y="0" type="line"/>
      <point x="161" y="0" type="line"/>
      <point x="161" y="41" type="line"/>
      <point x="97" y="38" type="line"/>
      <point x="103" y="50"/>
      <point x="116" y="75"/>
      <point x="127" y="107" type="curve" smooth="yes"/>
      <point x="207" y="349" type="line" smooth="yes"/>
      <point x="219" y="387"/>
      <point x="221" y="393"/>
      <point x="233" y="419" type="curve"/>
      <point x="242" y="392"/>
      <point x="253" y="359"/>
      <point x="262" y="336" type="curve" smooth="yes"/>
      <point x="338" y="141" type="line" smooth="yes"/>
      <point x="361" y="82"/>
      <point x="376" y="30"/>
      <point x="315" y="30" type="curve"/>
      <point x="315" y="0" type="line"/>
      <point x="499" y="0" type="line"/>
      <point x="499" y="41" type="line"/>
      <point x="458" y="38" type="line"/>
      <point x="455" y="61"/>
      <point x="445" y="101"/>
      <point x="414" y="177" type="curve" smooth="yes"/>
      <point x="271" y="526" type="line"/>
      <point x="231" y="526" type="line"/>
      <point x="100" y="165" type="line" smooth="yes"/>
      <point x="67" y="75"/>
      <point x="47" y="30"/>
      <point x="3" y="30" type="curve"/>
    </contour>
  </outline>
</glyph>
<glyph name="four.tf" format="2">
  <advance width="650"/>
  <outline>
    <contour>
      <point x="483" y="109" type="curve" smooth="yes"/>
      <point x="483" y="193" type="line"/>
      <point x="593" y="193" type="line"/>
      <point x="593" y="252" type="line"/>
      <point x="483" y="253" type="line"/>
      <point x="483" y="716" type="line"/>
      <point x="451" y="716" type="line"/>
      <point x="57" y="242" type="line"/>
      <point x="57" y="193" type="line"/>
      <point x="390" y="193" type="line"/>
      <point x="390" y="159" type="line" smooth="yes"/>
      <point x="390" y="77"/>
      <point x="373" y="36"/>
      <point x="302" y="36" type="curve" smooth="yes"/>
      <point x="295" y="36" type="line"/>
      <point x="295" y="0" type="line"/>
      <point x="563" y="0" type="line"/>
      <point x="563" y="41" type="line"/>
      <point x="533" y="40"/>
      <point x="508" y="39"/>
      <point x="479" y="38" type="curve"/>
      <point x="483" y="57"/>
      <point x="483" y="79"/>
    </contour>
    <contour>
      <point x="387" y="574" type="line"/>
      <point x="389" y="574" type="line"/>
      <point x="390" y="255" type="line"/>
      <point x="125" y="258" type="line"/>
    </contour>
  </outline>
</glyph>
<glyph name="ge-cy.loclBGR" format="2">
  <advance width="437"/>
  <outline>
    <contour>
      <point x="217" y="-16" type="curve" smooth="yes"/>
      <point x="303" y="-16"/>
      <point x="376" y="31"/>
      <point x="423" y="113" type="curve"/>
      <point x="396" y="131" type="line"/>
      <point x="359" y="66"/>
      <point x="302" y="29"/>
      <point x="243" y="29" type="curve" smooth="yes"/>
      <point x="197" y="29"/>
      <point x="151" y="58"/>
      <point x="151" y="110" type="curve" smooth="yes"/>
      <point x="151" y="164"/>
      <point x="189" y="194"/>
      <point x="256" y="238" type="curve" smooth="yes"/>
      <point x="342" y="294"/>
      <point x="406" y="336"/>
      <point x="406" y="403" type="curve" smooth="yes"/>
      <point x="406" y="467"/>
      <point x="348" y="515"/>
      <point x="255" y="515" type="curve" smooth="yes"/>
      <point x="203" y="515"/>
      <point x="148" y="500"/>
      <point x="107" y="467" type="curve"/>
      <point x="109" y="511" type="line"/>
      <point x="67" y="511" type="line"/>
      <point x="67" y="336" type="line"/>
      <point x="99" y="336" type="line"/>
      <point x="104" y="415"/>
      <point x="155" y="477"/>
      <point x="230" y="477" type="curve" smooth="yes"/>
      <point x="271" y="477"/>
      <point x="303" y="453"/>
      <point x="303" y="403" type="curve" smooth="yes"/>
      <point x="303" y="362"/>
      <point x="282" y="323"/>
      <point x="222" y="285" type="curve" smooth="yes"/>
      <point x="116" y="218"/>
      <point x="44" y="170"/>
      <point x="44" y="95" type="curve" smooth="yes"/>
      <point x="44" y="15"/>
      <point x="112" y="-16"/>
    </contour>
  </outline>
</glyph>
<glyph name="gravecomb.case" format="2">
  <anchor x="187" y="700" name="_top"/>
  <outline>
    <contour>
      <point x="223" y="760" type="line"/>
      <point x="245" y="789" type="line"/>
      <point x="119" y="909" type="line" smooth="yes"/>
      <point x="80" y="943"/>
      <point x="55" y="919"/>
      <point x="52" y="914" type="curve" smooth="yes"/>
      <point x="46" y="905"/>
      <point x="33" y="877"/>
      <point x="78" y="849" type="curve" smooth="yes"/>
    </contour>
  </outline>
</glyph>
<glyph name="hungarumlautcomb.case" format="2">
  <anchor x="142" y="700" name="_top"/>
  <outline>
    <contour>
      <point x="197" y="772" type="line"/>
      <point x="334" y="836" type="line" smooth="yes"/>
      <point x="354" y="845"/>
      <point x="363" y="871"/>
      <point x="352" y="893" type="curve" smooth="yes"/>
      <point x="338" y="917"/>
      <point x="311" y="917"/>
      <point x="293" y="900" type="curve" smooth="yes"/>
      <point x="183" y="798" type="line"/>
    </contour>
    <contour>
      <point x="88" y="772" type="line"/>
      <point x="180" y="855" type="line" smooth="yes"/>
      <point x="203" y="875"/>
      <point x="200" y="900"/>
      <point x="185" y="915" type="curve" smooth="yes"/>
      <point x="165" y="934"/>
      <point x="139" y="925"/>
      <point x="123" y="898" type="curve" smooth="yes"/>
      <point x="62" y="791" type="line"/>
    </contour>
  </outline>
</glyph>
<glyph name="numbersign.tf" format="2">
  <advance width="650"/>
  <outline>
    <contour>
      <point x="91" y="-16" type="line"/>
      <point x="160" y="-16" type="line"/>
      <point x="199" y="178" type="line"/>
      <point x="380" y="178" type="line"/>
      <point x="340" y="-16" type="line"/>
      <point x="409" y="-16" type="line"/>
      <point x="449" y="178" type="line"/>
      <point x="573" y="178" type="line"/>
      <point x="588" y="238" type="line"/>
      <point x="460" y="238" type="line"/>
      <point x="506" y="469" type="line"/>
      <point x="633" y="469" type="line"/>
      <point x="647" y="528" type="line"/>
      <point x="647" y="529" type="line"/>
      <point x="520" y="529" type="line"/>
      <point x="558" y="716" type="line"/>
      <point x="494" y="716" type="line"/>
      <point x="455" y="529" type="line"/>
      <point x="270" y="529" type="line"/>
      <point x="309" y="716" type="line"/>
      <point x="245" y="716" type="line"/>
      <point x="205" y="529" type="line"/>
      <point x="78" y="529" type="line"/>
      <point x="63" y="469" type="line"/>
      <point x="192" y="469" type="line"/>
      <point x="144" y="238" type="line"/>
      <point x="19" y="238" type="line"/>
      <point x="4" y="178" type="line"/>
      <point x="130" y="178" type="line"/>
    </contour>
    <contour>
      <point x="211" y="238" type="line"/>
      <point x="257" y="469" type="line"/>
      <point x="441" y="469" type="line"/>
      <point x="393" y="238" type="line"/>
    </contour>
  </outline>
</glyph>
<glyph name="one.tf" format="2">
  <advance width="650"/>
  <outline>
    <contour>
      <point x="166" y="0" type="line"/>
      <point x="531" y="0" type="line"/>
      <point x="531" y="44" type="line"/>
      <point x="397" y="40" type="line"/>
      <point x="400" y="59"/>
      <point x="400" y="83"/>
      <point x="400" y="109" type="curve" smooth="yes"/>
      <point x="399" y="716" type="line"/>
      <point x="365" y="716" type="line"/>
      <point x="137" y="542" type="line"/>
      <point x="157" y="513" type="line"/>
      <point x="310" y="619" type="line"/>
      <point x="313" y="147" type="line" smooth="yes"/>
      <point x="313" y="78"/>
      <point x="283" y="36"/>
      <point x="166" y="33" type="curve"/>
    </contour>
  </outline>
</glyph>
<glyph name="ringcomb.case" format="2">
  <anchor x="160" y="700" name="_top"/>
  <anchor x="160" y="936" name="top"/>
  <outline>
    <contour>
      <point x="161" y="715" type="curve" smooth="yes"/>
      <point x="217" y="715"/>
      <point x="276" y="760"/>
      <point x="274" y="832" type="curve" smooth="yes"/>
      <point x="271" y="904"/>
      <point x="213" y="936"/>
      <point x="159" y="936" type="curve" smooth="yes"/>
      <point x="102" y="936"/>
      <point x="44" y="889"/>
      <point x="46" y="820" type="curve" smooth="yes"/>
      <point x="49" y="747"/>
      <point x="105" y="715"/>
    </contour>
    <contour>
      <point x="165" y="750" type="curve" smooth="yes"/>
      <point x="128" y="749"/>
      <point x="104" y="781"/>
      <point x="104" y="830" type="curve" smooth="yes"/>
      <point x="104" y="872"/>
      <point x="125" y="900"/>
      <point x="156" y="902" type="curve" smooth="yes"/>
      <point x="190" y="904"/>
      <point x="216" y="875"/>
      <point x="216" y="818" type="curve" smooth="yes"/>
      <point x="216" y="777"/>
      <point x="192" y="751"/>
    </contour>
  </outline>
</glyph>
<glyph name="shcha-cy.loclBGR" format="2">
  <advance width="905"/>
  <outline>
    <contour>
      <point x="840" y="-178" type="curve"/>
      <point x="878" y="-178" type="line"/>
      <point x="878" y="42" type="line"/>
      <point x="788" y="38" type="line"/>
      <point x="791" y="65"/>
      <point x="792" y="111"/>
      <point x="792" y="132" type="curve" smooth="yes"/>
      <point x="793" y="510" type="line"/>
      <point x="764" y="510" type="line"/>
      <point x="738" y="486"/>
      <point x="716" y="483"/>
      <point x="641" y="483" type="curve"/>
      <point x="641" y="442" type="line"/>
      <point x="664" y="443"/>
      <point x="688" y="444"/>
      <point x="711" y="445" type="curve"/>
      <point x="707" y="422"/>
      <point x="707" y="401"/>
      <point x="707" y="380" type="curve" smooth="yes"/>
      <point x="705" y="112" type="line"/>
      <point x="677" y="71"/>
      <point x="622" y="36"/>
      <point x="579" y="35" type="curve" smooth="yes"/>
      <point x="510" y="34"/>
      <point x="482" y="94"/>
      <point x="482" y="208" type="curve" smooth="yes"/>
      <point x="483" y="510" type="line"/>
      <point x="454" y="510" type="line"/>
      <point x="428" y="486"/>
      <point x="406" y="483"/>
      <point x="332" y="483" type="curve"/>
      <point x="332" y="442" type="line"/>
      <point x="355" y="443"/>
      <point x="378" y="444"/>
      <point x="401" y="445" type="curve"/>
      <point x="397" y="422"/>
      <point x="397" y="401"/>
      <point x="397" y="380" type="curve" smooth="yes"/>
      <point x="395" y="159" type="line" smooth="yes"/>
      <point x="395" y="141"/>
      <point x="396" y="123"/>
      <point x="400" y="106" type="curve"/>
      <point x="371" y="67"/>
      <point x="320" y="36"/>
      <point x="280" y="35" type="curve" smooth="yes"/>
      <point x="210" y="33"/>
      <point x="177" y="94"/>
      <point x="177" y="208" type="curve" smooth="yes"/>
      <point x="177" y="510" type="line"/>
      <point x="148" y="510" type="line"/>
      <point x="122" y="486"/>
      <point x="100" y="483"/>
      <point x="26" y="483" type="curve"/>
      <point x="26" y="442" type="line"/>
      <point x="49" y="443"/>
      <point x="72" y="444"/>
      <point x="95" y="445" type="curve"/>
      <point x="91" y="422"/>
      <point x="91" y="401"/>
      <point x="91" y="380" type="curve" smooth="yes"/>
      <point x="90" y="208" type="line" smooth="yes"/>
      <point x="89" y="50"/>
      <point x="142" y="-16"/>
      <point x="256" y="-16" type="curve" smooth="yes"/>
      <point x="309" y="-16"/>
      <point x="377" y="24"/>
      <point x="415" y="65" type="curve"/>
      <point x="440" y="13"/>
      <point x="490" y="-16"/>
      <point x="556" y="-16" type="curve" smooth="yes"/>
      <point x="610" y="-16"/>
      <point x="672" y="19"/>
      <point x="710" y="60" type="curve"/>
      <point x="711" y="42"/>
      <point x="713" y="23"/>
      <point x="717" y="0" type="curve"/>
      <point x="757" y="0" type="line" smooth="yes"/>
      <point x="823" y="0"/>
      <point x="840" y="-78"/>
    </contour>
  </outline>
</glyph>
<glyph name="tildecomb.case" format="2">
  <anchor x="238" y="700" name="_top"/>
  <anchor x="238" y="910" name="top"/>
  <outline>
    <contour>
      <point x="431" y="889" type="curve"/>
      <point x="399" y="905" type="line"/>
      <point x="379" y="870"/>
      <point x="354" y="840"/>
      <point x="318" y="840" type="curve" smooth="yes"/>
      <point x="264" y="840"/>
      <point x="237" y="912"/>
      <point x="158" y="910" type="curve" smooth="yes"/>
      <point x="116" y="909"/>
      <point x="68" y="865"/>
      <point x="45" y="807" type="curve"/>
      <point x="79" y="788" type="line"/>
      <point x="104" y="825"/>
      <point x="124" y="848"/>
      <point x="153" y="848" type="curve" smooth="yes"/>
      <point x="200" y="848"/>
      <point x="235" y="777"/>
      <point x="312" y="777" type="curve" smooth="yes"/>
      <point x="356" y="777"/>
      <point x="403" y="807"/>
    </contour>
  </outline>
</glyph>
<glyph name="ze-cy.loclBGR" format="2">
  <advance width="469"/>
  <outline>
    <contour>
      <point x="212" y="-256" type="curve" smooth="yes"/>
      <point x="349" y="-256"/>
      <point x="440" y="-170"/>
      <point x="440" y="-27" type="curve" smooth="yes"/>
      <point x="440" y="83"/>
      <point x="368" y="162"/>
      <point x="266" y="174" type="curve"/>
      <point x="347" y="193"/>
      <point x="396" y="261"/>
      <point x="396" y="345" type="curve" smooth="yes"/>
      <point x="396" y="446"/>
      <point x="329" y="516"/>
      <point x="219" y="516" type="curve" smooth="yes"/>
      <point x="177" y="516"/>
      <point x="127" y="506"/>
      <point x="84" y="473" type="curve"/>
      <point x="86" y="511" type="line"/>
      <point x="44" y="511" type="line"/>
      <point x="44" y="336" type="line"/>
      <point x="76" y="336" type="line"/>
      <point x="80" y="405"/>
      <point x="129" y="479"/>
      <point x="202" y="479" type="curve" smooth="yes"/>
      <point x="272" y="479"/>
      <point x="304" y="427"/>
      <point x="304" y="336" type="curve" smooth="yes"/>
      <point x="304" y="241"/>
      <point x="266" y="186"/>
      <point x="177" y="184" type="curve" smooth="yes"/>
      <point x="160" y="184"/>
      <point x="143" y="183"/>
      <point x="126" y="183" type="curve"/>
      <point x="126" y="145" type="line"/>
      <point x="143" y="145"/>
      <point x="160" y="145"/>
      <point x="177" y="145" type="curve" smooth="yes"/>
      <point x="280" y="145"/>
      <point x="344" y="98"/>
      <point x="344" y="-38" type="curve" smooth="yes"/>
      <point x="344" y="-153"/>
      <point x="295" y="-221"/>
      <point x="204" y="-221" type="curve" smooth="yes"/>
      <point x="174" y="-221"/>
      <point x="113" y="-208"/>
      <point x="91" y="-171" type="curve"/>
      <point x="106" y="-156"/>
      <point x="113" y="-143"/>
      <point x="113" y="-125" type="curve" smooth="yes"/>
      <point x="113" y="-101"/>
      <point x="99" y="-79"/>
      <point x="66" y="-80" type="curve" smooth="yes"/>
      <point x="36" y="-81"/>
      <point x="20" y="-104"/>
      <point x="20" y="-133" type="curve" smooth="yes"/>
      <point x="20" y="-191"/>
      <point x="85" y="-256"/>
    </contour>
  </outline>
</glyph>
<glyph name="zedescender-cy.loclBSH" format="2">
  <advance width="459"/>
  <outline>
    <contour>
      <point x="243" y="-183" type="curve" smooth="yes"/>
      <point x="283" y="-183"/>
      <point x="306" y="-151"/>
      <point x="306" y="-114" type="curve" smooth="yes"/>
      <point x="306" y="-76"/>
      <point x="279" y="-24"/>
      <point x="228" y="7" type="curve"/>
      <point x="188" y="-1" type="line"/>
      <point x="221" y="-17"/>
      <point x="260" y="-60"/>
      <point x="257" y="-86" type="curve"/>
      <point x="250" y="-84"/>
      <point x="243" y="-82"/>
      <point x="232" y="-82" type="curve" smooth="yes"/>
      <point x="208" y="-82"/>
      <point x="185" y="-100"/>
      <point x="185" y="-135" type="curve" smooth="yes"/>
      <point x="185" y="-164"/>
      <point x="211" y="-183"/>
    </contour>
    <component base="ze-cy"/>
  </outline>
</glyph>
<glyph name="zhe-cy.loclBGR" format="2">
  <advance width="775"/>
  <outline>
    <contour>
      <point x="7" y="0" type="line"/>
      <point x="95" y="0" type="line" smooth="yes"/>
      <point x="127" y="0"/>
      <point x="159" y="40"/>
      <point x="201" y="95" type="curve" smooth="yes"/>
      <point x="233" y="139"/>
      <point x="273" y="200"/>
      <point x="311" y="245" type="curve"/>
      <point x="345" y="244" type="line"/>
      <point x="344" y="151" type="line"/>
      <point x="344" y="79"/>
      <point x="347" y="30"/>
      <point x="286" y="30" type="curve"/>
      <point x="286" y="0" type="line"/>
      <point x="491" y="0" type="line"/>
      <point x="491" y="41" type="line"/>
      <point x="470" y="40"/>
      <point x="448" y="39"/>
      <point x="427" y="38" type="curve"/>
      <point x="431" y="61"/>
      <point x="431" y="79"/>
      <point x="431" y="106" type="curve" smooth="yes"/>
      <point x="431" y="244" type="line"/>
      <point x="464" y="245" type="line"/>
      <point x="502" y="200"/>
      <point x="542" y="139"/>
      <point x="575" y="95" type="curve" smooth="yes"/>
      <point x="616" y="40"/>
      <point x="648" y="0"/>
      <point x="680" y="0" type="curve" smooth="yes"/>
      <point x="768" y="0" type="line"/>
      <point x="768" y="30" type="line"/>
      <point x="733" y="30"/>
      <point x="698" y="65"/>
      <point x="654" y="126" type="curve" smooth="yes"/>
      <point x="616" y="180"/>
      <point x="565" y="249"/>
      <point x="526" y="278" type="curve"/>
      <point x="597" y="365" type="line"/>
      <point x="632" y="403"/>
      <point x="689" y="463"/>
      <point x="757" y="470" type="curve"/>
      <point x="757" y="500" type="line"/>
      <point x="575" y="500" type="line"/>
      <point x="575" y="460" type="line"/>
      <point x="643" y="463" type="line"/>
      <point x="624" y="451"/>
      <point x="606" y="433"/>
      <point x="584" y="410" type="curve"/>
      <point x="477" y="282" type="line"/>
      <point x="431" y="282" type="line"/>
      <point x="431" y="755" type="line"/>
      <point x="402" y="755" type="line"/>
      <point x="387" y="741"/>
      <point x="365" y="728"/>
      <point x="277" y="728" type="curve"/>
      <point x="277" y="686" type="line"/>
      <point x="301" y="687"/>
      <point x="324" y="689"/>
      <point x="348" y="690" type="curve"/>
      <point x="345" y="663"/>
      <point x="345" y="646"/>
      <point x="345" y="625" type="curve" smooth="yes"/>
      <point x="345" y="282" type="line"/>
      <point x="299" y="282" type="line"/>
      <point x="191" y="410" type="line"/>
      <point x="169" y="433"/>
      <point x="151" y="451"/>
      <point x="132" y="463" type="curve"/>
      <point x="201" y="460" type="line"/>
      <point x="201" y="500" type="line"/>
      <point x="19" y="500" type="line"/>
      <point x="19" y="470" type="line"/>
      <point x="86" y="463"/>
      <point x="144" y="403"/>
      <point x="179" y="365" type="curve"/>
      <point x="250" y="278" type="line"/>
      <point x="211" y="249"/>
      <point x="160" y="180"/>
      <point x="121" y="126" type="curve" smooth="yes"/>
      <point x="77" y="65"/>
      <point x="42" y="30"/>
      <point x="7" y="30" type="curve"/>
    </contour>
  </outline>
</glyph>
